%TF.GenerationSoftware,KiCad,Pcbnew,9.0.5*%
%TF.CreationDate,2025-10-20T11:06:58+01:00*%
%TF.ProjectId,Sound Capture,536f756e-6420-4436-9170-747572652e6b,rev?*%
%TF.SameCoordinates,Original*%
%TF.FileFunction,Plated,1,2,PTH,Drill*%
%TF.FilePolarity,Positive*%
%FSLAX46Y46*%
G04 Gerber Fmt 4.6, Leading zero omitted, Abs format (unit mm)*
G04 Created by KiCad (PCBNEW 9.0.5) date 2025-10-20 11:06:58*
%MOMM*%
%LPD*%
G01*
G04 APERTURE LIST*
%TA.AperFunction,ViaDrill*%
%ADD10C,0.300000*%
%TD*%
%TA.AperFunction,ComponentDrill*%
%ADD11C,0.300000*%
%TD*%
%TA.AperFunction,ComponentDrill*%
%ADD12C,1.000000*%
%TD*%
%TA.AperFunction,ComponentDrill*%
%ADD13C,1.100000*%
%TD*%
%TA.AperFunction,ComponentDrill*%
%ADD14C,2.500000*%
%TD*%
G04 APERTURE END LIST*
D10*
X58039000Y-115138200D03*
X58445400Y-105918000D03*
X58877200Y-99161600D03*
X59207400Y-125628400D03*
X62098000Y-95559800D03*
X63728600Y-63703200D03*
X64575200Y-62399400D03*
X64820800Y-123977400D03*
X65049400Y-91236800D03*
X65963800Y-111887000D03*
X66065400Y-103632000D03*
X66116200Y-76809600D03*
X66675000Y-108508800D03*
X66675000Y-110464600D03*
X67665600Y-108483400D03*
X67665600Y-110490000D03*
X68529200Y-83134200D03*
X68681600Y-108508800D03*
X68707000Y-110388400D03*
X68732400Y-84353400D03*
X69418200Y-100050600D03*
X69748400Y-107467400D03*
X69748400Y-112090200D03*
X70129400Y-98272600D03*
X71437500Y-84594700D03*
X71653400Y-103149400D03*
X71772400Y-80754600D03*
X72123300Y-95796100D03*
X72390000Y-88214200D03*
X72440800Y-90424000D03*
X73228200Y-104038400D03*
X73507600Y-110109000D03*
X73685400Y-95046800D03*
X73685400Y-100355400D03*
X73736200Y-96443800D03*
X73774300Y-97548700D03*
X74422000Y-70459600D03*
X74650600Y-60147200D03*
X74955400Y-89789000D03*
X75057000Y-64109600D03*
X75260200Y-68224400D03*
X75463400Y-88849200D03*
X75971400Y-96875600D03*
X76301600Y-75463400D03*
X76504800Y-78638400D03*
X76504800Y-100584000D03*
X76555600Y-68630800D03*
X77012800Y-94183200D03*
X77749400Y-81864200D03*
X77851000Y-79857600D03*
X78409800Y-94488000D03*
X78511400Y-96037400D03*
X78663800Y-79298800D03*
X78841600Y-81838800D03*
X79095600Y-93624400D03*
X80690600Y-81833600D03*
X80695800Y-79857600D03*
X82778600Y-63220600D03*
X83693000Y-114122200D03*
X84455000Y-63169800D03*
X84480400Y-75285600D03*
X84632800Y-61977600D03*
X85267800Y-127787400D03*
X85547200Y-88366600D03*
X85648800Y-126441200D03*
X87020400Y-115697000D03*
X88163400Y-90424000D03*
X88392000Y-92100400D03*
X88874600Y-80695800D03*
X88925400Y-100330000D03*
X89077800Y-99085400D03*
X89179400Y-97815400D03*
X89408000Y-76047600D03*
X89573100Y-75196700D03*
X90195400Y-122732800D03*
X90398600Y-127990600D03*
X90627200Y-126949200D03*
X90703400Y-85521800D03*
D11*
%TO.C,AE1*%
X95717600Y-47057800D03*
D12*
%TO.C,J2*%
X57336200Y-87802400D03*
X57336200Y-90302400D03*
%TO.C,J3*%
X57353200Y-79288000D03*
X57353200Y-81788000D03*
D13*
%TO.C,SW4*%
X94534600Y-66370200D03*
X94534600Y-72870200D03*
%TO.C,SW3*%
X94547600Y-56314800D03*
X94547600Y-62814800D03*
%TO.C,SW1*%
X95021400Y-101854000D03*
X95021400Y-108354000D03*
%TO.C,SW5*%
X95068000Y-79402800D03*
X95068000Y-85902800D03*
%TO.C,SW2*%
X95072200Y-90551000D03*
X95072200Y-97051000D03*
%TO.C,SW4*%
X99034600Y-66370200D03*
X99034600Y-72870200D03*
%TO.C,SW3*%
X99047600Y-56314800D03*
X99047600Y-62814800D03*
%TO.C,SW1*%
X99521400Y-101854000D03*
X99521400Y-108354000D03*
%TO.C,SW5*%
X99568000Y-79402800D03*
X99568000Y-85902800D03*
%TO.C,SW2*%
X99572200Y-90551000D03*
X99572200Y-97051000D03*
D14*
%TO.C,H4*%
X55424696Y-43994696D03*
%TO.C,H3*%
X55473600Y-128447800D03*
%TO.C,H1*%
X99898200Y-44018200D03*
%TO.C,H2*%
X99932935Y-128457135D03*
M02*
