%TF.GenerationSoftware,KiCad,Pcbnew,9.0.5*%
%TF.CreationDate,2025-10-20T11:06:54+01:00*%
%TF.ProjectId,Sound Capture,536f756e-6420-4436-9170-747572652e6b,rev?*%
%TF.SameCoordinates,Original*%
%TF.FileFunction,Copper,L2,Bot*%
%TF.FilePolarity,Positive*%
%FSLAX46Y46*%
G04 Gerber Fmt 4.6, Leading zero omitted, Abs format (unit mm)*
G04 Created by KiCad (PCBNEW 9.0.5) date 2025-10-20 11:06:54*
%MOMM*%
%LPD*%
G01*
G04 APERTURE LIST*
G04 Aperture macros list*
%AMRoundRect*
0 Rectangle with rounded corners*
0 $1 Rounding radius*
0 $2 $3 $4 $5 $6 $7 $8 $9 X,Y pos of 4 corners*
0 Add a 4 corners polygon primitive as box body*
4,1,4,$2,$3,$4,$5,$6,$7,$8,$9,$2,$3,0*
0 Add four circle primitives for the rounded corners*
1,1,$1+$1,$2,$3*
1,1,$1+$1,$4,$5*
1,1,$1+$1,$6,$7*
1,1,$1+$1,$8,$9*
0 Add four rect primitives between the rounded corners*
20,1,$1+$1,$2,$3,$4,$5,0*
20,1,$1+$1,$4,$5,$6,$7,0*
20,1,$1+$1,$6,$7,$8,$9,0*
20,1,$1+$1,$8,$9,$2,$3,0*%
G04 Aperture macros list end*
%TA.AperFunction,ComponentPad*%
%ADD10C,2.000000*%
%TD*%
%TA.AperFunction,ComponentPad*%
%ADD11O,2.000000X1.700000*%
%TD*%
%TA.AperFunction,ComponentPad*%
%ADD12RoundRect,0.250000X0.750000X-0.600000X0.750000X0.600000X-0.750000X0.600000X-0.750000X-0.600000X0*%
%TD*%
%TA.AperFunction,ComponentPad*%
%ADD13C,5.000000*%
%TD*%
%TA.AperFunction,ComponentPad*%
%ADD14R,0.900000X0.500000*%
%TD*%
%TA.AperFunction,ViaPad*%
%ADD15C,0.600000*%
%TD*%
%TA.AperFunction,Conductor*%
%ADD16C,0.200000*%
%TD*%
%TA.AperFunction,Conductor*%
%ADD17C,0.300000*%
%TD*%
%TA.AperFunction,Conductor*%
%ADD18C,0.500000*%
%TD*%
G04 APERTURE END LIST*
D10*
%TO.P,SW5,1,1*%
%TO.N,PlayBTN*%
X95068000Y-85902800D03*
X95068000Y-79402800D03*
%TO.P,SW5,2,2*%
%TO.N,Net-(C37-Pad1)*%
X99568000Y-85902800D03*
X99568000Y-79402800D03*
%TD*%
D11*
%TO.P,J3,2,Pin_2*%
%TO.N,Net-(J3-Pin_2)*%
X57353200Y-79288000D03*
D12*
%TO.P,J3,1,Pin_1*%
%TO.N,Net-(J3-Pin_1)*%
X57353200Y-81788000D03*
%TD*%
D13*
%TO.P,H4,1*%
%TO.N,N/C*%
X55424696Y-43994696D03*
%TD*%
%TO.P,H3,1*%
%TO.N,N/C*%
X55473600Y-128447800D03*
%TD*%
%TO.P,H2,1*%
%TO.N,N/C*%
X99932935Y-128457135D03*
%TD*%
%TO.P,H1,1*%
%TO.N,N/C*%
X99898200Y-44018200D03*
%TD*%
D10*
%TO.P,SW4,1,1*%
%TO.N,BOOT*%
X94534600Y-72870200D03*
X94534600Y-66370200D03*
%TO.P,SW4,2,2*%
%TO.N,GND*%
X99034600Y-72870200D03*
X99034600Y-66370200D03*
%TD*%
%TO.P,SW3,1,1*%
%TO.N,ENABLE*%
X94547600Y-62814800D03*
X94547600Y-56314800D03*
%TO.P,SW3,2,2*%
%TO.N,Net-(C25-Pad1)*%
X99047600Y-62814800D03*
X99047600Y-56314800D03*
%TD*%
%TO.P,SW2,1,1*%
%TO.N,StopBTN*%
X95072200Y-97051000D03*
X95072200Y-90551000D03*
%TO.P,SW2,2,2*%
%TO.N,GND*%
X99572200Y-97051000D03*
X99572200Y-90551000D03*
%TD*%
%TO.P,SW1,1,1*%
%TO.N,StartBTN*%
X95021400Y-108354000D03*
X95021400Y-101854000D03*
%TO.P,SW1,2,2*%
%TO.N,GND*%
X99521400Y-108354000D03*
X99521400Y-101854000D03*
%TD*%
D12*
%TO.P,J2,1,Pin_1*%
%TO.N,VBAT*%
X57336200Y-90302400D03*
D11*
%TO.P,J2,2,Pin_2*%
%TO.N,GND*%
X57336200Y-87802400D03*
%TD*%
D14*
%TO.P,AE1,2,PCB_Trace*%
%TO.N,GND*%
X95717600Y-47057800D03*
%TD*%
D15*
%TO.N,GND*%
X65049400Y-91236800D03*
X69748400Y-107467400D03*
X66065400Y-103632000D03*
X73507600Y-110109000D03*
%TO.N,SPICLK*%
X89179400Y-97815400D03*
%TO.N,SPIHD*%
X88925400Y-100330000D03*
%TO.N,SPID*%
X89077800Y-99085400D03*
%TO.N,GND*%
X59207400Y-125628400D03*
X64820800Y-123977400D03*
%TO.N,VDD*%
X90195400Y-122732800D03*
%TO.N,BOOT*%
X76301600Y-75463400D03*
X80695800Y-79857600D03*
%TO.N,StartBTN*%
X88392000Y-92100400D03*
%TO.N,StopBTN*%
X88163400Y-90424000D03*
%TO.N,+5V*%
X74422000Y-70459600D03*
X75260200Y-68224400D03*
X74650600Y-60147200D03*
X68732400Y-84353400D03*
X58877200Y-99161600D03*
X58445400Y-105918000D03*
%TO.N,Net-(U1-STAT)*%
X62098000Y-95559800D03*
X83693000Y-114122200D03*
%TO.N,Stat-Led*%
X85547200Y-88366600D03*
%TO.N,+5V*%
X87020400Y-115697000D03*
%TO.N,SCK*%
X85648800Y-126441200D03*
%TO.N,SD*%
X85267800Y-127787400D03*
%TO.N,SCK*%
X90627200Y-126949200D03*
%TO.N,SD*%
X90398600Y-127990600D03*
%TO.N,SPID*%
X79095600Y-93624400D03*
%TO.N,SPIQ*%
X78511400Y-96037400D03*
X78409800Y-94488000D03*
%TO.N,SPIHD*%
X75971400Y-96875600D03*
%TO.N,SPICLK*%
X77012800Y-94183200D03*
%TO.N,+5V*%
X58039000Y-115138200D03*
%TO.N,VDD*%
X76504800Y-100584000D03*
X73685400Y-100355400D03*
%TO.N,XTAL_32N*%
X72440800Y-90424000D03*
%TO.N,XTAL_32P*%
X72390000Y-88214200D03*
%TO.N,XTAL_32N*%
X75463400Y-88849200D03*
%TO.N,XTAL_32P*%
X74955400Y-89789000D03*
%TO.N,MCU3V3*%
X73228200Y-104038400D03*
X71653400Y-103149400D03*
%TO.N,VDD*%
X69748400Y-112090200D03*
X65963800Y-111887000D03*
%TO.N,DAT0*%
X66675000Y-108508800D03*
X69418200Y-100050600D03*
X73774300Y-97548700D03*
%TO.N,CLK*%
X67665600Y-108483400D03*
X70129400Y-98272600D03*
X73736200Y-96443800D03*
%TO.N,CMD*%
X68681600Y-108508800D03*
X72123300Y-95796100D03*
X73685400Y-95046800D03*
%TO.N,DAT0*%
X66675000Y-110464600D03*
%TO.N,CLK*%
X67665600Y-110490000D03*
%TO.N,CMD*%
X68707000Y-110388400D03*
%TO.N,VDD*%
X84455000Y-63169800D03*
X82778600Y-63220600D03*
%TO.N,VSYST*%
X66116200Y-76809600D03*
X68529200Y-83134200D03*
%TO.N,Net-(U6-GAIN_SLOT)*%
X71437500Y-84594700D03*
%TO.N,DIN*%
X76504800Y-78638400D03*
%TO.N,Stat-Led*%
X78841600Y-81838800D03*
%TO.N,StartBTN*%
X77851000Y-79857600D03*
%TO.N,StopBTN*%
X77749400Y-81864200D03*
%TO.N,DIN*%
X78663800Y-79298800D03*
%TO.N,Net-(U6-GAIN_SLOT)*%
X71772400Y-80754600D03*
%TO.N,ENABLE*%
X76555600Y-68630800D03*
%TO.N,PlayBTN*%
X90703400Y-85521800D03*
X80690600Y-81833600D03*
%TO.N,GND*%
X88874600Y-80695800D03*
%TO.N,BOOT*%
X84480400Y-75285600D03*
%TO.N,ENABLE*%
X75057000Y-64109600D03*
X84632800Y-61977600D03*
%TO.N,TXD*%
X64575200Y-62399400D03*
%TO.N,RXD*%
X63728600Y-63703200D03*
X89408000Y-76047600D03*
%TO.N,TXD*%
X89573100Y-75196700D03*
%TD*%
D16*
%TO.N,GND*%
X61615000Y-87802400D02*
X57336200Y-87802400D01*
X65049400Y-91236800D02*
X61615000Y-87802400D01*
X69748400Y-107010200D02*
X70078600Y-106680000D01*
X70078600Y-106680000D02*
X68427600Y-105029000D01*
X69748400Y-107467400D02*
X69748400Y-107010200D01*
X66065400Y-103632000D02*
X66014600Y-103682800D01*
X66370200Y-103327200D02*
X66065400Y-103632000D01*
X68427600Y-103327200D02*
X66370200Y-103327200D01*
X73507600Y-110109000D02*
X70078600Y-106680000D01*
X68427600Y-105029000D02*
X68427600Y-103327200D01*
%TO.N,SPICLK*%
X77012800Y-95388743D02*
X77012800Y-94183200D01*
X80303057Y-98679000D02*
X77012800Y-95388743D01*
X88315800Y-98679000D02*
X80303057Y-98679000D01*
X89179400Y-97815400D02*
X88315800Y-98679000D01*
D17*
%TO.N,SPID*%
X88138000Y-93624400D02*
X79095600Y-93624400D01*
X90678000Y-98755200D02*
X90678000Y-96164400D01*
X90678000Y-96164400D02*
X88138000Y-93624400D01*
X90347800Y-99085400D02*
X90678000Y-98755200D01*
X89077800Y-99085400D02*
X90347800Y-99085400D01*
D16*
%TO.N,SPIHD*%
X87579200Y-100457000D02*
X87604600Y-100482400D01*
X79552800Y-100457000D02*
X87579200Y-100457000D01*
X87604600Y-100482400D02*
X88773000Y-100482400D01*
X75971400Y-96875600D02*
X79552800Y-100457000D01*
D17*
%TO.N,GND*%
X59156600Y-125577600D02*
X59207400Y-125628400D01*
X59156600Y-124002800D02*
X59156600Y-125577600D01*
X64820800Y-123977400D02*
X64795400Y-124002800D01*
X64795400Y-124002800D02*
X59156600Y-124002800D01*
D16*
%TO.N,VDD*%
X79933800Y-105181400D02*
X79933800Y-104013000D01*
X79933800Y-104013000D02*
X76504800Y-100584000D01*
X90195400Y-115443000D02*
X79933800Y-105181400D01*
X90195400Y-122732800D02*
X90195400Y-115443000D01*
D17*
%TO.N,BOOT*%
X76301600Y-75463400D02*
X80695800Y-79857600D01*
D16*
X84480400Y-76073000D02*
X84480400Y-75285600D01*
X80695800Y-79857600D02*
X84480400Y-76073000D01*
%TO.N,StartBTN*%
X88392000Y-91871800D02*
X88392000Y-92100400D01*
X87508400Y-90988200D02*
X88392000Y-91871800D01*
X86004400Y-89560400D02*
X87508400Y-89560400D01*
X85323957Y-89560400D02*
X86004400Y-89560400D01*
X84133350Y-87519850D02*
X84133350Y-88369793D01*
X79425800Y-83032600D02*
X79646100Y-83032600D01*
X78067857Y-83032600D02*
X79425800Y-83032600D01*
X79646100Y-83032600D02*
X84133350Y-87519850D01*
X77148400Y-82113143D02*
X78067857Y-83032600D01*
X87508400Y-89560400D02*
X87508400Y-90988200D01*
X77148400Y-80560200D02*
X77148400Y-82113143D01*
X84133350Y-88369793D02*
X85323957Y-89560400D01*
X77851000Y-79857600D02*
X77148400Y-80560200D01*
%TO.N,StopBTN*%
X87909400Y-90170000D02*
X88163400Y-90424000D01*
X87909400Y-89077800D02*
X87909400Y-90170000D01*
X85408457Y-89077800D02*
X87909400Y-89077800D01*
X84658200Y-87477600D02*
X84658200Y-87503000D01*
X79654400Y-82473800D02*
X84658200Y-87477600D01*
X78359000Y-82473800D02*
X79654400Y-82473800D01*
X84658200Y-88327543D02*
X85408457Y-89077800D01*
X77749400Y-81864200D02*
X78359000Y-82473800D01*
X84658200Y-87503000D02*
X84658200Y-88327543D01*
D18*
%TO.N,+5V*%
X69280200Y-75601400D02*
X69280200Y-83805600D01*
X69280200Y-83805600D02*
X68732400Y-84353400D01*
X74422000Y-70459600D02*
X69280200Y-75601400D01*
X74306000Y-60491800D02*
X74306000Y-67270200D01*
X74306000Y-67270200D02*
X75260200Y-68224400D01*
X74650600Y-60147200D02*
X74306000Y-60491800D01*
X58877200Y-105486200D02*
X58445400Y-105918000D01*
X58877200Y-99161600D02*
X58877200Y-105486200D01*
D17*
%TO.N,Net-(U1-STAT)*%
X53568600Y-113334800D02*
X61468000Y-113334800D01*
X53568600Y-96545400D02*
X53568600Y-113334800D01*
X54554200Y-95559800D02*
X53568600Y-96545400D01*
X62255400Y-114122200D02*
X83693000Y-114122200D01*
X62098000Y-95559800D02*
X54554200Y-95559800D01*
X61468000Y-113334800D02*
X62255400Y-114122200D01*
D16*
%TO.N,Stat-Led*%
X85547200Y-87655400D02*
X85547200Y-88366600D01*
X79730600Y-81838800D02*
X85547200Y-87655400D01*
X78841600Y-81838800D02*
X79730600Y-81838800D01*
D18*
%TO.N,+5V*%
X86461600Y-115138200D02*
X87020400Y-115697000D01*
X73812400Y-115138200D02*
X86461600Y-115138200D01*
D16*
%TO.N,SCK*%
X90119200Y-126441200D02*
X90627200Y-126949200D01*
X85648800Y-126441200D02*
X90119200Y-126441200D01*
%TO.N,SD*%
X85471000Y-127990600D02*
X90398600Y-127990600D01*
X85267800Y-127787400D02*
X85471000Y-127990600D01*
%TO.N,SPIQ*%
X78409800Y-95935800D02*
X78511400Y-96037400D01*
X78409800Y-94488000D02*
X78409800Y-95935800D01*
D18*
%TO.N,+5V*%
X58039000Y-115138200D02*
X73812400Y-115138200D01*
D16*
%TO.N,VDD*%
X76276200Y-100355400D02*
X73685400Y-100355400D01*
X76504800Y-100584000D02*
X76276200Y-100355400D01*
%TO.N,XTAL_32N*%
X75170343Y-90424000D02*
X72440800Y-90424000D01*
X75556400Y-88942200D02*
X75556400Y-90037943D01*
X75556400Y-90037943D02*
X75170343Y-90424000D01*
X75463400Y-88849200D02*
X75556400Y-88942200D01*
%TO.N,XTAL_32P*%
X73380600Y-88214200D02*
X72390000Y-88214200D01*
X74955400Y-89789000D02*
X73380600Y-88214200D01*
%TO.N,MCU3V3*%
X72542400Y-104038400D02*
X71653400Y-103149400D01*
X73228200Y-104038400D02*
X72542400Y-104038400D01*
%TO.N,VDD*%
X69545200Y-111887000D02*
X69748400Y-112090200D01*
X65963800Y-111887000D02*
X69545200Y-111887000D01*
%TO.N,DAT0*%
X66675000Y-108508800D02*
X66675000Y-110464600D01*
X69418200Y-100050600D02*
X69418200Y-100076000D01*
X69418200Y-99847400D02*
X69418200Y-100050600D01*
X69646800Y-99618800D02*
X69418200Y-99847400D01*
X71716900Y-97548700D02*
X69646800Y-99618800D01*
X73774300Y-97548700D02*
X71716900Y-97548700D01*
%TO.N,CLK*%
X67665600Y-108483400D02*
X67665600Y-110490000D01*
X70129400Y-98272600D02*
X70129400Y-98298000D01*
X70129400Y-97307400D02*
X70129400Y-98272600D01*
X70993000Y-96443800D02*
X70129400Y-97307400D01*
X73736200Y-96443800D02*
X70993000Y-96443800D01*
%TO.N,CMD*%
X68681600Y-110363000D02*
X68707000Y-110388400D01*
X68681600Y-108508800D02*
X68681600Y-110363000D01*
X72123300Y-95796100D02*
X72085200Y-95834200D01*
X72872600Y-95046800D02*
X72123300Y-95796100D01*
X73685400Y-95046800D02*
X72872600Y-95046800D01*
%TO.N,VDD*%
X84404200Y-63220600D02*
X84455000Y-63169800D01*
X82778600Y-63220600D02*
X84404200Y-63220600D01*
%TO.N,Net-(U6-GAIN_SLOT)*%
X71437500Y-81089500D02*
X71772400Y-80754600D01*
X71437500Y-84594700D02*
X71437500Y-81089500D01*
%TO.N,VSYST*%
X66116200Y-77952600D02*
X66116200Y-76809600D01*
X66192400Y-78028800D02*
X66116200Y-77952600D01*
X68529200Y-80365600D02*
X66192400Y-78028800D01*
X68529200Y-83134200D02*
X68529200Y-80365600D01*
%TO.N,DIN*%
X78003400Y-78638400D02*
X78663800Y-79298800D01*
X76504800Y-78638400D02*
X78003400Y-78638400D01*
%TO.N,RXD*%
X65311900Y-63703200D02*
X63728600Y-63703200D01*
X82993200Y-69632800D02*
X71241500Y-69632800D01*
X71241500Y-69632800D02*
X65311900Y-63703200D01*
X89408000Y-76047600D02*
X82993200Y-69632800D01*
%TO.N,TXD*%
X71407600Y-69231800D02*
X64575200Y-62399400D01*
X83608200Y-69231800D02*
X71407600Y-69231800D01*
X89573100Y-75196700D02*
X83608200Y-69231800D01*
%TO.N,ENABLE*%
X76555600Y-65608200D02*
X75057000Y-64109600D01*
X76555600Y-68630800D02*
X76555600Y-65608200D01*
%TO.N,PlayBTN*%
X82397600Y-83540600D02*
X80690600Y-81833600D01*
X89941400Y-83540600D02*
X82397600Y-83540600D01*
X89941400Y-84759800D02*
X89941400Y-83540600D01*
X90703400Y-85521800D02*
X89941400Y-84759800D01*
%TO.N,ENABLE*%
X77189000Y-61977600D02*
X75057000Y-64109600D01*
X84632800Y-61977600D02*
X77189000Y-61977600D01*
%TO.N,SPIHD*%
X88773000Y-100482400D02*
X88874600Y-100380800D01*
X87325200Y-100482400D02*
X87604600Y-100482400D01*
%TD*%
%TA.AperFunction,Conductor*%
%TO.N,GND*%
G36*
X80715296Y-41735754D02*
G01*
X80782324Y-41755462D01*
X80828060Y-41808282D01*
X80839244Y-41860626D01*
X80799135Y-47556432D01*
X80797400Y-47802800D01*
X96167600Y-47929800D01*
X97637600Y-47929800D01*
X97648118Y-46310016D01*
X97668236Y-46243110D01*
X97721336Y-46197699D01*
X97790558Y-46188204D01*
X97853923Y-46217641D01*
X97859794Y-46223143D01*
X97879762Y-46243110D01*
X97895677Y-46259025D01*
X98159161Y-46469146D01*
X98444514Y-46648446D01*
X98748149Y-46794669D01*
X98987048Y-46878263D01*
X99066234Y-46905972D01*
X99066246Y-46905976D01*
X99394806Y-46980967D01*
X99729692Y-47018699D01*
X99729693Y-47018700D01*
X99729696Y-47018700D01*
X100066707Y-47018700D01*
X100066707Y-47018699D01*
X100401594Y-46980967D01*
X100730154Y-46905976D01*
X101048251Y-46794669D01*
X101351886Y-46648446D01*
X101637239Y-46469146D01*
X101900723Y-46259025D01*
X101937801Y-46221947D01*
X101999124Y-46188462D01*
X102068816Y-46193446D01*
X102124749Y-46235318D01*
X102149166Y-46300782D01*
X102149482Y-46309564D01*
X102190516Y-126171942D01*
X102170866Y-126238992D01*
X102118085Y-126284774D01*
X102048932Y-126294753D01*
X101985361Y-126265761D01*
X101978835Y-126259687D01*
X101935457Y-126216309D01*
X101868541Y-126162946D01*
X101671974Y-126006189D01*
X101408601Y-125840700D01*
X101386618Y-125826887D01*
X101082989Y-125680667D01*
X100764900Y-125569362D01*
X100764888Y-125569358D01*
X100436332Y-125494368D01*
X100436316Y-125494366D01*
X100101443Y-125456635D01*
X100101439Y-125456635D01*
X99764431Y-125456635D01*
X99764426Y-125456635D01*
X99429553Y-125494366D01*
X99429537Y-125494368D01*
X99100981Y-125569358D01*
X99100969Y-125569362D01*
X98782880Y-125680667D01*
X98479251Y-125826887D01*
X98193897Y-126006188D01*
X97930412Y-126216309D01*
X97692109Y-126454612D01*
X97481988Y-126718097D01*
X97302687Y-127003451D01*
X97156467Y-127307080D01*
X97045162Y-127625169D01*
X97045158Y-127625181D01*
X96970168Y-127953737D01*
X96970166Y-127953753D01*
X96932435Y-128288626D01*
X96932435Y-128625643D01*
X96970166Y-128960516D01*
X96970168Y-128960532D01*
X97045158Y-129289088D01*
X97045162Y-129289100D01*
X97156467Y-129607189D01*
X97302687Y-129910818D01*
X97302689Y-129910821D01*
X97481989Y-130196174D01*
X97638746Y-130392741D01*
X97692109Y-130459657D01*
X97736188Y-130503736D01*
X97769673Y-130565059D01*
X97764689Y-130634751D01*
X97722817Y-130690684D01*
X97657353Y-130715101D01*
X97648481Y-130715417D01*
X57757033Y-130707050D01*
X57689998Y-130687351D01*
X57644254Y-130634538D01*
X57634325Y-130565377D01*
X57663363Y-130501828D01*
X57669365Y-130495382D01*
X57714425Y-130450323D01*
X57924546Y-130186839D01*
X58103846Y-129901486D01*
X58165477Y-129773508D01*
X90202900Y-129773508D01*
X90202900Y-129905292D01*
X90211798Y-129938499D01*
X90237008Y-130032587D01*
X90269954Y-130089650D01*
X90302900Y-130146714D01*
X90396086Y-130239900D01*
X90510214Y-130305792D01*
X90637508Y-130339900D01*
X90637510Y-130339900D01*
X90769290Y-130339900D01*
X90769292Y-130339900D01*
X90896586Y-130305792D01*
X91010714Y-130239900D01*
X91103900Y-130146714D01*
X91169792Y-130032586D01*
X91203900Y-129905292D01*
X91203900Y-129773508D01*
X91169792Y-129646214D01*
X91103900Y-129532086D01*
X91010714Y-129438900D01*
X90953650Y-129405954D01*
X90896587Y-129373008D01*
X90832939Y-129355954D01*
X90769292Y-129338900D01*
X90637508Y-129338900D01*
X90510212Y-129373008D01*
X90396086Y-129438900D01*
X90396083Y-129438902D01*
X90302902Y-129532083D01*
X90302900Y-129532086D01*
X90237008Y-129646212D01*
X90202900Y-129773508D01*
X58165477Y-129773508D01*
X58195301Y-129711579D01*
X58195302Y-129711577D01*
X58250064Y-129597862D01*
X58250065Y-129597859D01*
X58250069Y-129597851D01*
X58361376Y-129279754D01*
X58436367Y-128951194D01*
X58474100Y-128616304D01*
X58474100Y-128279296D01*
X58436367Y-127944406D01*
X58382536Y-127708553D01*
X84467300Y-127708553D01*
X84467300Y-127866246D01*
X84498061Y-128020889D01*
X84498064Y-128020901D01*
X84558402Y-128166572D01*
X84558409Y-128166585D01*
X84646010Y-128297688D01*
X84646013Y-128297692D01*
X84757507Y-128409186D01*
X84757511Y-128409189D01*
X84888614Y-128496790D01*
X84888627Y-128496797D01*
X84990424Y-128538962D01*
X85034303Y-128557137D01*
X85169809Y-128584091D01*
X85188953Y-128587899D01*
X85188956Y-128587900D01*
X85188958Y-128587900D01*
X85346634Y-128587900D01*
X85346642Y-128587900D01*
X85346649Y-128587898D01*
X85348560Y-128587710D01*
X85350877Y-128587900D01*
X85352735Y-128587900D01*
X85352735Y-128588052D01*
X85383809Y-128590600D01*
X85383883Y-128590039D01*
X85391942Y-128591100D01*
X85391943Y-128591100D01*
X89818834Y-128591100D01*
X89885873Y-128610785D01*
X89887725Y-128611998D01*
X90019414Y-128699990D01*
X90019427Y-128699997D01*
X90165098Y-128760335D01*
X90165103Y-128760337D01*
X90319753Y-128791099D01*
X90319756Y-128791100D01*
X90319758Y-128791100D01*
X90477444Y-128791100D01*
X90477445Y-128791099D01*
X90632097Y-128760337D01*
X90777779Y-128699994D01*
X90908889Y-128612389D01*
X91020389Y-128500889D01*
X91107994Y-128369779D01*
X91168337Y-128224097D01*
X91199100Y-128069442D01*
X91199100Y-127911758D01*
X91199100Y-127911755D01*
X91199099Y-127911753D01*
X91168338Y-127757110D01*
X91168337Y-127757103D01*
X91136497Y-127680233D01*
X91129028Y-127610764D01*
X91160303Y-127548285D01*
X91163350Y-127545127D01*
X91248989Y-127459489D01*
X91336594Y-127328379D01*
X91396937Y-127182697D01*
X91427700Y-127028042D01*
X91427700Y-126870358D01*
X91427700Y-126870355D01*
X91427699Y-126870353D01*
X91396938Y-126715710D01*
X91396937Y-126715703D01*
X91379949Y-126674689D01*
X91336597Y-126570027D01*
X91336590Y-126570014D01*
X91248989Y-126438911D01*
X91248986Y-126438907D01*
X91137492Y-126327413D01*
X91137488Y-126327410D01*
X91006385Y-126239809D01*
X91006372Y-126239802D01*
X90860701Y-126179464D01*
X90860691Y-126179461D01*
X90705349Y-126148561D01*
X90688592Y-126139795D01*
X90670114Y-126135776D01*
X90645077Y-126117033D01*
X90643438Y-126116176D01*
X90641860Y-126114625D01*
X90606790Y-126079555D01*
X90606788Y-126079552D01*
X90487917Y-125960681D01*
X90487916Y-125960680D01*
X90401104Y-125910560D01*
X90401104Y-125910559D01*
X90401100Y-125910558D01*
X90350985Y-125881623D01*
X90198257Y-125840699D01*
X90040143Y-125840699D01*
X90032547Y-125840699D01*
X90032531Y-125840700D01*
X86228566Y-125840700D01*
X86161527Y-125821015D01*
X86159675Y-125819802D01*
X86027985Y-125731809D01*
X86027972Y-125731802D01*
X85882301Y-125671464D01*
X85882289Y-125671461D01*
X85727645Y-125640700D01*
X85727642Y-125640700D01*
X85569958Y-125640700D01*
X85569955Y-125640700D01*
X85415310Y-125671461D01*
X85415298Y-125671464D01*
X85269627Y-125731802D01*
X85269614Y-125731809D01*
X85138511Y-125819410D01*
X85138507Y-125819413D01*
X85027013Y-125930907D01*
X85027010Y-125930911D01*
X84939409Y-126062014D01*
X84939402Y-126062027D01*
X84879064Y-126207698D01*
X84879061Y-126207710D01*
X84848300Y-126362353D01*
X84848300Y-126520046D01*
X84879061Y-126674689D01*
X84879064Y-126674701D01*
X84939402Y-126820372D01*
X84939412Y-126820390D01*
X84979278Y-126880054D01*
X85000156Y-126946731D01*
X84981671Y-127014111D01*
X84929692Y-127060801D01*
X84923629Y-127063505D01*
X84888623Y-127078004D01*
X84888614Y-127078009D01*
X84757511Y-127165610D01*
X84757507Y-127165613D01*
X84646013Y-127277107D01*
X84646010Y-127277111D01*
X84558409Y-127408214D01*
X84558402Y-127408227D01*
X84498064Y-127553898D01*
X84498061Y-127553910D01*
X84467300Y-127708553D01*
X58382536Y-127708553D01*
X58361376Y-127615846D01*
X58250069Y-127297749D01*
X58103846Y-126994114D01*
X57924546Y-126708761D01*
X57714425Y-126445277D01*
X57476123Y-126206975D01*
X57466101Y-126198983D01*
X57316339Y-126079552D01*
X57212639Y-125996854D01*
X57015553Y-125873016D01*
X56927283Y-125817552D01*
X56623654Y-125671332D01*
X56305565Y-125560027D01*
X56305553Y-125560023D01*
X55976997Y-125485033D01*
X55976981Y-125485031D01*
X55642108Y-125447300D01*
X55642104Y-125447300D01*
X55305096Y-125447300D01*
X55305091Y-125447300D01*
X54970218Y-125485031D01*
X54970202Y-125485033D01*
X54641646Y-125560023D01*
X54641634Y-125560027D01*
X54323545Y-125671332D01*
X54019916Y-125817552D01*
X53734562Y-125996853D01*
X53471082Y-126206970D01*
X53400232Y-126277820D01*
X53338908Y-126311304D01*
X53269217Y-126306319D01*
X53213283Y-126264448D01*
X53188867Y-126198983D01*
X53188551Y-126190186D01*
X53188535Y-126148561D01*
X53183836Y-114065145D01*
X53203495Y-113998101D01*
X53256281Y-113952326D01*
X53325435Y-113942355D01*
X53355287Y-113950538D01*
X53378856Y-113960301D01*
X53378860Y-113960301D01*
X53378861Y-113960302D01*
X53504528Y-113985300D01*
X53504531Y-113985300D01*
X53632669Y-113985300D01*
X61147192Y-113985300D01*
X61176632Y-113993944D01*
X61206619Y-114000468D01*
X61211634Y-114004222D01*
X61214231Y-114004985D01*
X61234873Y-114021619D01*
X61389273Y-114176019D01*
X61422758Y-114237342D01*
X61417774Y-114307034D01*
X61375902Y-114362967D01*
X61310438Y-114387384D01*
X61301592Y-114387700D01*
X58343604Y-114387700D01*
X58296155Y-114378262D01*
X58272497Y-114368463D01*
X58272493Y-114368462D01*
X58272488Y-114368460D01*
X58117845Y-114337700D01*
X58117842Y-114337700D01*
X57960158Y-114337700D01*
X57960155Y-114337700D01*
X57805510Y-114368461D01*
X57805498Y-114368464D01*
X57659827Y-114428802D01*
X57659814Y-114428809D01*
X57528711Y-114516410D01*
X57528707Y-114516413D01*
X57417213Y-114627907D01*
X57417210Y-114627911D01*
X57329609Y-114759014D01*
X57329602Y-114759027D01*
X57269264Y-114904698D01*
X57269261Y-114904710D01*
X57238500Y-115059353D01*
X57238500Y-115217046D01*
X57269261Y-115371689D01*
X57269264Y-115371701D01*
X57329602Y-115517372D01*
X57329609Y-115517385D01*
X57417210Y-115648488D01*
X57417213Y-115648492D01*
X57528707Y-115759986D01*
X57528711Y-115759989D01*
X57659814Y-115847590D01*
X57659827Y-115847597D01*
X57805498Y-115907935D01*
X57805503Y-115907937D01*
X57960153Y-115938699D01*
X57960156Y-115938700D01*
X57960158Y-115938700D01*
X58117844Y-115938700D01*
X58117845Y-115938699D01*
X58194152Y-115923520D01*
X58272488Y-115907939D01*
X58272489Y-115907938D01*
X58272497Y-115907937D01*
X58296155Y-115898137D01*
X58343604Y-115888700D01*
X73738482Y-115888700D01*
X86099370Y-115888700D01*
X86128810Y-115897344D01*
X86158797Y-115903868D01*
X86163812Y-115907622D01*
X86166409Y-115908385D01*
X86187051Y-115925019D01*
X86274327Y-116012295D01*
X86301206Y-116052521D01*
X86311006Y-116076179D01*
X86311007Y-116076181D01*
X86398607Y-116207284D01*
X86398613Y-116207292D01*
X86510107Y-116318786D01*
X86510111Y-116318789D01*
X86641214Y-116406390D01*
X86641227Y-116406397D01*
X86786898Y-116466735D01*
X86786903Y-116466737D01*
X86941553Y-116497499D01*
X86941556Y-116497500D01*
X86941558Y-116497500D01*
X87099244Y-116497500D01*
X87099245Y-116497499D01*
X87253897Y-116466737D01*
X87399579Y-116406394D01*
X87530689Y-116318789D01*
X87642189Y-116207289D01*
X87729794Y-116076179D01*
X87790137Y-115930497D01*
X87820900Y-115775842D01*
X87820900Y-115618158D01*
X87820900Y-115618155D01*
X87820899Y-115618153D01*
X87800855Y-115517385D01*
X87790137Y-115463503D01*
X87748899Y-115363945D01*
X87729797Y-115317827D01*
X87729790Y-115317814D01*
X87642189Y-115186711D01*
X87642186Y-115186707D01*
X87530692Y-115075213D01*
X87530684Y-115075207D01*
X87399581Y-114987607D01*
X87399579Y-114987606D01*
X87375921Y-114977806D01*
X87335695Y-114950927D01*
X86940021Y-114555252D01*
X86940018Y-114555249D01*
X86859394Y-114501379D01*
X86817095Y-114473116D01*
X86817092Y-114473114D01*
X86817091Y-114473114D01*
X86680517Y-114416543D01*
X86680507Y-114416540D01*
X86535520Y-114387700D01*
X86535518Y-114387700D01*
X84607466Y-114387700D01*
X84540427Y-114368015D01*
X84494672Y-114315211D01*
X84484728Y-114246053D01*
X84485849Y-114239508D01*
X84493500Y-114201044D01*
X84493500Y-114043355D01*
X84493499Y-114043353D01*
X84485715Y-114004222D01*
X84462737Y-113888703D01*
X84450850Y-113860005D01*
X84402397Y-113743027D01*
X84402390Y-113743014D01*
X84314789Y-113611911D01*
X84314786Y-113611907D01*
X84203292Y-113500413D01*
X84203288Y-113500410D01*
X84072185Y-113412809D01*
X84072172Y-113412802D01*
X83926501Y-113352464D01*
X83926489Y-113352461D01*
X83771845Y-113321700D01*
X83771842Y-113321700D01*
X83614158Y-113321700D01*
X83614155Y-113321700D01*
X83459510Y-113352461D01*
X83459498Y-113352464D01*
X83313827Y-113412802D01*
X83313820Y-113412806D01*
X83284928Y-113432111D01*
X83256955Y-113450802D01*
X83190279Y-113471680D01*
X83188065Y-113471700D01*
X62576208Y-113471700D01*
X62509169Y-113452015D01*
X62488527Y-113435381D01*
X61882674Y-112829527D01*
X61882673Y-112829526D01*
X61882669Y-112829523D01*
X61776127Y-112758335D01*
X61657744Y-112709299D01*
X61657738Y-112709297D01*
X61532071Y-112684300D01*
X61532069Y-112684300D01*
X54343100Y-112684300D01*
X54276061Y-112664615D01*
X54230306Y-112611811D01*
X54219100Y-112560300D01*
X54219100Y-111808153D01*
X65163300Y-111808153D01*
X65163300Y-111965846D01*
X65194061Y-112120489D01*
X65194064Y-112120501D01*
X65254402Y-112266172D01*
X65254409Y-112266185D01*
X65342010Y-112397288D01*
X65342013Y-112397292D01*
X65453507Y-112508786D01*
X65453511Y-112508789D01*
X65584614Y-112596390D01*
X65584627Y-112596397D01*
X65730298Y-112656735D01*
X65730303Y-112656737D01*
X65868871Y-112684300D01*
X65884953Y-112687499D01*
X65884956Y-112687500D01*
X65884958Y-112687500D01*
X66042644Y-112687500D01*
X66042645Y-112687499D01*
X66197297Y-112656737D01*
X66309966Y-112610067D01*
X66342972Y-112596397D01*
X66342972Y-112596396D01*
X66342979Y-112596394D01*
X66342985Y-112596390D01*
X66474675Y-112508398D01*
X66541353Y-112487520D01*
X66543566Y-112487500D01*
X68984835Y-112487500D01*
X69051874Y-112507185D01*
X69087936Y-112542608D01*
X69099758Y-112560300D01*
X69126612Y-112600491D01*
X69238107Y-112711986D01*
X69238111Y-112711989D01*
X69369214Y-112799590D01*
X69369227Y-112799597D01*
X69514898Y-112859935D01*
X69514903Y-112859937D01*
X69669553Y-112890699D01*
X69669556Y-112890700D01*
X69669558Y-112890700D01*
X69827244Y-112890700D01*
X69827245Y-112890699D01*
X69981897Y-112859937D01*
X70127579Y-112799594D01*
X70258689Y-112711989D01*
X70370189Y-112600489D01*
X70457794Y-112469379D01*
X70518137Y-112323697D01*
X70548900Y-112169042D01*
X70548900Y-112011358D01*
X70548900Y-112011355D01*
X70548899Y-112011353D01*
X70518138Y-111856710D01*
X70518137Y-111856703D01*
X70498027Y-111808153D01*
X70457797Y-111711027D01*
X70457790Y-111711014D01*
X70370189Y-111579911D01*
X70370186Y-111579907D01*
X70258692Y-111468413D01*
X70258688Y-111468410D01*
X70127585Y-111380809D01*
X70127572Y-111380802D01*
X69981901Y-111320464D01*
X69981889Y-111320461D01*
X69827245Y-111289700D01*
X69827242Y-111289700D01*
X69669558Y-111289700D01*
X69669551Y-111289700D01*
X69667610Y-111289891D01*
X69652959Y-111290462D01*
X69637911Y-111290157D01*
X69624257Y-111286499D01*
X69466143Y-111286499D01*
X69466139Y-111286500D01*
X69212534Y-111286500D01*
X69145495Y-111266815D01*
X69099740Y-111214011D01*
X69089796Y-111144853D01*
X69118821Y-111081297D01*
X69143643Y-111059398D01*
X69168866Y-111042544D01*
X69217289Y-111010189D01*
X69328789Y-110898689D01*
X69416394Y-110767579D01*
X69476737Y-110621897D01*
X69507500Y-110467242D01*
X69507500Y-110309558D01*
X69507500Y-110309555D01*
X69507499Y-110309553D01*
X69476737Y-110154903D01*
X69476735Y-110154898D01*
X69416397Y-110009227D01*
X69416390Y-110009214D01*
X69328789Y-109878111D01*
X69328786Y-109878107D01*
X69318419Y-109867740D01*
X69284934Y-109806417D01*
X69282100Y-109780059D01*
X69282100Y-109088565D01*
X69301785Y-109021526D01*
X69302998Y-109019674D01*
X69390990Y-108887985D01*
X69390990Y-108887984D01*
X69390994Y-108887979D01*
X69451337Y-108742297D01*
X69482100Y-108587642D01*
X69482100Y-108429958D01*
X69482100Y-108429955D01*
X69482099Y-108429953D01*
X69466991Y-108353999D01*
X69451337Y-108275303D01*
X69451335Y-108275298D01*
X69390997Y-108129627D01*
X69390990Y-108129614D01*
X69303389Y-107998511D01*
X69303386Y-107998507D01*
X69191892Y-107887013D01*
X69191888Y-107887010D01*
X69060785Y-107799409D01*
X69060772Y-107799402D01*
X68915101Y-107739064D01*
X68915089Y-107739061D01*
X68760445Y-107708300D01*
X68760442Y-107708300D01*
X68602758Y-107708300D01*
X68602755Y-107708300D01*
X68448110Y-107739061D01*
X68448098Y-107739064D01*
X68302428Y-107799402D01*
X68302414Y-107799410D01*
X68261494Y-107826751D01*
X68194816Y-107847627D01*
X68127437Y-107829141D01*
X68123715Y-107826749D01*
X68044785Y-107774009D01*
X68044772Y-107774002D01*
X67899101Y-107713664D01*
X67899089Y-107713661D01*
X67744445Y-107682900D01*
X67744442Y-107682900D01*
X67586758Y-107682900D01*
X67586755Y-107682900D01*
X67432110Y-107713661D01*
X67432098Y-107713664D01*
X67286427Y-107774002D01*
X67286416Y-107774008D01*
X67220182Y-107818264D01*
X67153504Y-107839141D01*
X67086124Y-107820656D01*
X67082402Y-107818264D01*
X67054182Y-107799408D01*
X67054181Y-107799407D01*
X67054179Y-107799406D01*
X67054176Y-107799404D01*
X67054171Y-107799402D01*
X66908501Y-107739064D01*
X66908489Y-107739061D01*
X66753845Y-107708300D01*
X66753842Y-107708300D01*
X66596158Y-107708300D01*
X66596155Y-107708300D01*
X66441510Y-107739061D01*
X66441498Y-107739064D01*
X66295827Y-107799402D01*
X66295814Y-107799409D01*
X66164711Y-107887010D01*
X66164707Y-107887013D01*
X66053213Y-107998507D01*
X66053210Y-107998511D01*
X65965609Y-108129614D01*
X65965602Y-108129627D01*
X65905264Y-108275298D01*
X65905261Y-108275310D01*
X65874500Y-108429953D01*
X65874500Y-108587646D01*
X65905261Y-108742289D01*
X65905264Y-108742301D01*
X65965602Y-108887972D01*
X65965609Y-108887985D01*
X66053602Y-109019674D01*
X66074480Y-109086351D01*
X66074500Y-109088565D01*
X66074500Y-109884834D01*
X66054815Y-109951873D01*
X66053602Y-109953725D01*
X65965609Y-110085414D01*
X65965602Y-110085427D01*
X65905264Y-110231098D01*
X65905261Y-110231110D01*
X65874500Y-110385753D01*
X65874500Y-110543446D01*
X65905261Y-110698089D01*
X65905264Y-110698101D01*
X65965602Y-110843772D01*
X65965609Y-110843785D01*
X65998901Y-110893609D01*
X66019779Y-110960286D01*
X66001295Y-111027666D01*
X65949316Y-111074357D01*
X65895799Y-111086500D01*
X65884955Y-111086500D01*
X65730310Y-111117261D01*
X65730298Y-111117264D01*
X65584627Y-111177602D01*
X65584614Y-111177609D01*
X65453511Y-111265210D01*
X65453507Y-111265213D01*
X65342013Y-111376707D01*
X65342010Y-111376711D01*
X65254409Y-111507814D01*
X65254402Y-111507827D01*
X65194064Y-111653498D01*
X65194061Y-111653510D01*
X65163300Y-111808153D01*
X54219100Y-111808153D01*
X54219100Y-105839153D01*
X57644900Y-105839153D01*
X57644900Y-105996846D01*
X57675661Y-106151489D01*
X57675664Y-106151501D01*
X57736002Y-106297172D01*
X57736009Y-106297185D01*
X57823610Y-106428288D01*
X57823613Y-106428292D01*
X57935107Y-106539786D01*
X57935111Y-106539789D01*
X58066214Y-106627390D01*
X58066227Y-106627397D01*
X58211898Y-106687735D01*
X58211903Y-106687737D01*
X58366553Y-106718499D01*
X58366556Y-106718500D01*
X58366558Y-106718500D01*
X58524244Y-106718500D01*
X58524245Y-106718499D01*
X58678897Y-106687737D01*
X58824579Y-106627394D01*
X58955689Y-106539789D01*
X59067189Y-106428289D01*
X59154794Y-106297179D01*
X59164592Y-106273521D01*
X59191467Y-106233298D01*
X59460151Y-105964616D01*
X59542284Y-105841695D01*
X59598858Y-105705113D01*
X59627700Y-105560118D01*
X59627700Y-105412283D01*
X59627700Y-103070553D01*
X70852900Y-103070553D01*
X70852900Y-103228246D01*
X70883661Y-103382889D01*
X70883664Y-103382901D01*
X70944002Y-103528572D01*
X70944009Y-103528585D01*
X71031610Y-103659688D01*
X71031613Y-103659692D01*
X71143107Y-103771186D01*
X71143111Y-103771189D01*
X71274214Y-103858790D01*
X71274227Y-103858797D01*
X71419898Y-103919135D01*
X71419903Y-103919137D01*
X71484547Y-103931995D01*
X71575249Y-103950038D01*
X71637160Y-103982423D01*
X71638739Y-103983974D01*
X72057539Y-104402774D01*
X72057549Y-104402785D01*
X72061879Y-104407115D01*
X72061880Y-104407116D01*
X72173684Y-104518920D01*
X72225245Y-104548688D01*
X72260495Y-104569039D01*
X72260497Y-104569041D01*
X72298551Y-104591011D01*
X72310615Y-104597977D01*
X72463343Y-104638901D01*
X72463346Y-104638901D01*
X72629053Y-104638901D01*
X72629069Y-104638900D01*
X72648434Y-104638900D01*
X72715473Y-104658585D01*
X72717325Y-104659798D01*
X72849014Y-104747790D01*
X72849027Y-104747797D01*
X72994698Y-104808135D01*
X72994703Y-104808137D01*
X73149353Y-104838899D01*
X73149356Y-104838900D01*
X73149358Y-104838900D01*
X73307044Y-104838900D01*
X73307045Y-104838899D01*
X73461697Y-104808137D01*
X73607379Y-104747794D01*
X73738489Y-104660189D01*
X73849989Y-104548689D01*
X73937594Y-104417579D01*
X73997937Y-104271897D01*
X74028700Y-104117242D01*
X74028700Y-103959558D01*
X74028700Y-103959555D01*
X74028699Y-103959553D01*
X74008657Y-103858797D01*
X73997937Y-103804903D01*
X73965199Y-103725865D01*
X73937597Y-103659227D01*
X73937590Y-103659214D01*
X73849989Y-103528111D01*
X73849986Y-103528107D01*
X73738492Y-103416613D01*
X73738488Y-103416610D01*
X73607385Y-103329009D01*
X73607372Y-103329002D01*
X73461701Y-103268664D01*
X73461689Y-103268661D01*
X73307045Y-103237900D01*
X73307042Y-103237900D01*
X73149358Y-103237900D01*
X73149355Y-103237900D01*
X72994710Y-103268661D01*
X72994698Y-103268664D01*
X72849028Y-103329002D01*
X72849014Y-103329010D01*
X72833654Y-103339273D01*
X72766976Y-103360149D01*
X72699596Y-103341662D01*
X72677085Y-103323850D01*
X72487974Y-103134739D01*
X72454489Y-103073416D01*
X72454038Y-103071249D01*
X72423138Y-102915910D01*
X72423137Y-102915903D01*
X72423135Y-102915898D01*
X72362797Y-102770227D01*
X72362790Y-102770214D01*
X72275189Y-102639111D01*
X72275186Y-102639107D01*
X72163692Y-102527613D01*
X72163688Y-102527610D01*
X72032585Y-102440009D01*
X72032572Y-102440002D01*
X71886901Y-102379664D01*
X71886889Y-102379661D01*
X71732245Y-102348900D01*
X71732242Y-102348900D01*
X71574558Y-102348900D01*
X71574555Y-102348900D01*
X71419910Y-102379661D01*
X71419898Y-102379664D01*
X71274227Y-102440002D01*
X71274214Y-102440009D01*
X71143111Y-102527610D01*
X71143107Y-102527613D01*
X71031613Y-102639107D01*
X71031610Y-102639111D01*
X70944009Y-102770214D01*
X70944002Y-102770227D01*
X70883664Y-102915898D01*
X70883661Y-102915910D01*
X70852900Y-103070553D01*
X59627700Y-103070553D01*
X59627700Y-99971753D01*
X68617700Y-99971753D01*
X68617700Y-100129446D01*
X68648461Y-100284089D01*
X68648464Y-100284101D01*
X68708802Y-100429772D01*
X68708809Y-100429785D01*
X68796410Y-100560888D01*
X68796413Y-100560892D01*
X68907907Y-100672386D01*
X68907911Y-100672389D01*
X69039014Y-100759990D01*
X69039027Y-100759997D01*
X69184698Y-100820335D01*
X69184703Y-100820337D01*
X69339353Y-100851099D01*
X69339356Y-100851100D01*
X69339358Y-100851100D01*
X69497044Y-100851100D01*
X69497045Y-100851099D01*
X69651697Y-100820337D01*
X69797379Y-100759994D01*
X69928489Y-100672389D01*
X70039989Y-100560889D01*
X70127594Y-100429779D01*
X70136266Y-100408844D01*
X70158982Y-100354000D01*
X70187937Y-100284097D01*
X70189438Y-100276553D01*
X72884900Y-100276553D01*
X72884900Y-100434246D01*
X72915661Y-100588889D01*
X72915664Y-100588901D01*
X72976002Y-100734572D01*
X72976009Y-100734585D01*
X73063610Y-100865688D01*
X73063613Y-100865692D01*
X73175107Y-100977186D01*
X73175111Y-100977189D01*
X73306214Y-101064790D01*
X73306227Y-101064797D01*
X73451898Y-101125135D01*
X73451903Y-101125137D01*
X73606553Y-101155899D01*
X73606556Y-101155900D01*
X73606558Y-101155900D01*
X73764244Y-101155900D01*
X73764245Y-101155899D01*
X73918897Y-101125137D01*
X74031566Y-101078467D01*
X74064572Y-101064797D01*
X74064572Y-101064796D01*
X74064579Y-101064794D01*
X74091907Y-101046534D01*
X74196275Y-100976798D01*
X74262953Y-100955920D01*
X74265166Y-100955900D01*
X75724263Y-100955900D01*
X75791302Y-100975585D01*
X75827365Y-101011009D01*
X75883010Y-101094289D01*
X75994507Y-101205786D01*
X75994511Y-101205789D01*
X76125614Y-101293390D01*
X76125627Y-101293397D01*
X76271298Y-101353735D01*
X76271303Y-101353737D01*
X76335947Y-101366595D01*
X76426649Y-101384638D01*
X76488560Y-101417023D01*
X76490139Y-101418574D01*
X79296981Y-104225416D01*
X79330466Y-104286739D01*
X79333300Y-104313097D01*
X79333300Y-105094730D01*
X79333299Y-105094748D01*
X79333299Y-105260454D01*
X79333298Y-105260454D01*
X79333299Y-105260457D01*
X79374223Y-105413185D01*
X79374224Y-105413187D01*
X79374223Y-105413187D01*
X79389465Y-105439585D01*
X79389466Y-105439586D01*
X79453279Y-105550114D01*
X79453281Y-105550117D01*
X79572149Y-105668985D01*
X79572155Y-105668990D01*
X89558581Y-115655416D01*
X89592066Y-115716739D01*
X89594900Y-115743097D01*
X89594900Y-122153034D01*
X89575215Y-122220073D01*
X89574002Y-122221925D01*
X89486009Y-122353614D01*
X89486002Y-122353627D01*
X89425664Y-122499298D01*
X89425661Y-122499310D01*
X89394900Y-122653953D01*
X89394900Y-122811646D01*
X89425661Y-122966289D01*
X89425664Y-122966301D01*
X89486002Y-123111972D01*
X89486009Y-123111985D01*
X89573610Y-123243088D01*
X89573613Y-123243092D01*
X89685107Y-123354586D01*
X89685111Y-123354589D01*
X89816214Y-123442190D01*
X89816227Y-123442197D01*
X89961898Y-123502535D01*
X89961903Y-123502537D01*
X90116553Y-123533299D01*
X90116556Y-123533300D01*
X90116558Y-123533300D01*
X90274244Y-123533300D01*
X90274245Y-123533299D01*
X90428897Y-123502537D01*
X90574579Y-123442194D01*
X90705689Y-123354589D01*
X90817189Y-123243089D01*
X90904794Y-123111979D01*
X90965137Y-122966297D01*
X90995900Y-122811642D01*
X90995900Y-122653958D01*
X90995900Y-122653955D01*
X90995899Y-122653953D01*
X90965138Y-122499310D01*
X90965137Y-122499303D01*
X90965135Y-122499298D01*
X90904797Y-122353627D01*
X90904790Y-122353614D01*
X90816798Y-122221925D01*
X90795920Y-122155247D01*
X90795900Y-122153034D01*
X90795900Y-115532059D01*
X90795901Y-115532046D01*
X90795901Y-115363945D01*
X90795901Y-115363943D01*
X90754977Y-115211215D01*
X90726039Y-115161095D01*
X90675920Y-115074284D01*
X90564116Y-114962480D01*
X90564115Y-114962479D01*
X90559785Y-114958149D01*
X90559774Y-114958139D01*
X83837537Y-108235902D01*
X93520900Y-108235902D01*
X93520900Y-108472097D01*
X93557846Y-108705368D01*
X93630833Y-108929996D01*
X93687076Y-109040378D01*
X93738057Y-109140433D01*
X93876883Y-109331510D01*
X94043890Y-109498517D01*
X94234967Y-109637343D01*
X94334391Y-109688002D01*
X94445403Y-109744566D01*
X94445405Y-109744566D01*
X94445408Y-109744568D01*
X94554638Y-109780059D01*
X94670031Y-109817553D01*
X94903303Y-109854500D01*
X94903308Y-109854500D01*
X95139497Y-109854500D01*
X95372768Y-109817553D01*
X95407041Y-109806417D01*
X95597392Y-109744568D01*
X95807833Y-109637343D01*
X95998910Y-109498517D01*
X96165917Y-109331510D01*
X96304743Y-109140433D01*
X96411968Y-108929992D01*
X96484953Y-108705368D01*
X96487117Y-108691708D01*
X96521900Y-108472097D01*
X96521900Y-108235947D01*
X98021400Y-108235947D01*
X98021400Y-108472052D01*
X98058334Y-108705247D01*
X98131297Y-108929802D01*
X98238487Y-109140174D01*
X98298738Y-109223104D01*
X98298740Y-109223105D01*
X98997612Y-108524233D01*
X99008882Y-108566292D01*
X99081290Y-108691708D01*
X99183692Y-108794110D01*
X99309108Y-108866518D01*
X99351165Y-108877787D01*
X98652293Y-109576658D01*
X98735228Y-109636914D01*
X98945597Y-109744102D01*
X99170152Y-109817065D01*
X99170151Y-109817065D01*
X99403348Y-109854000D01*
X99639452Y-109854000D01*
X99872647Y-109817065D01*
X100097202Y-109744102D01*
X100307563Y-109636918D01*
X100307569Y-109636914D01*
X100390504Y-109576658D01*
X100390505Y-109576658D01*
X99691633Y-108877787D01*
X99733692Y-108866518D01*
X99859108Y-108794110D01*
X99961510Y-108691708D01*
X100033918Y-108566292D01*
X100045187Y-108524234D01*
X100744058Y-109223105D01*
X100744058Y-109223104D01*
X100804314Y-109140169D01*
X100804318Y-109140163D01*
X100911502Y-108929802D01*
X100984465Y-108705247D01*
X101021400Y-108472052D01*
X101021400Y-108235947D01*
X100984465Y-108002752D01*
X100911502Y-107778197D01*
X100804314Y-107567828D01*
X100744058Y-107484894D01*
X100744058Y-107484893D01*
X100045187Y-108183765D01*
X100033918Y-108141708D01*
X99961510Y-108016292D01*
X99859108Y-107913890D01*
X99733692Y-107841482D01*
X99691634Y-107830212D01*
X100390505Y-107131340D01*
X100390504Y-107131338D01*
X100307574Y-107071087D01*
X100097202Y-106963897D01*
X99872647Y-106890934D01*
X99872648Y-106890934D01*
X99639452Y-106854000D01*
X99403348Y-106854000D01*
X99170152Y-106890934D01*
X98945597Y-106963897D01*
X98735230Y-107071084D01*
X98652294Y-107131340D01*
X99351166Y-107830212D01*
X99309108Y-107841482D01*
X99183692Y-107913890D01*
X99081290Y-108016292D01*
X99008882Y-108141708D01*
X98997612Y-108183766D01*
X98298740Y-107484894D01*
X98238484Y-107567830D01*
X98131297Y-107778197D01*
X98058334Y-108002752D01*
X98021400Y-108235947D01*
X96521900Y-108235947D01*
X96521900Y-108235902D01*
X96484953Y-108002631D01*
X96439132Y-107861611D01*
X96411968Y-107778008D01*
X96411966Y-107778005D01*
X96411966Y-107778003D01*
X96304877Y-107567830D01*
X96304743Y-107567567D01*
X96165917Y-107376490D01*
X95998910Y-107209483D01*
X95807833Y-107070657D01*
X95597396Y-106963433D01*
X95372768Y-106890446D01*
X95139497Y-106853500D01*
X95139492Y-106853500D01*
X94903308Y-106853500D01*
X94903303Y-106853500D01*
X94670031Y-106890446D01*
X94445403Y-106963433D01*
X94234966Y-107070657D01*
X94151447Y-107131338D01*
X94043890Y-107209483D01*
X94043888Y-107209485D01*
X94043887Y-107209485D01*
X93876885Y-107376487D01*
X93876885Y-107376488D01*
X93876883Y-107376490D01*
X93817262Y-107458550D01*
X93738057Y-107567566D01*
X93630833Y-107778003D01*
X93557846Y-108002631D01*
X93520900Y-108235902D01*
X83837537Y-108235902D01*
X80570619Y-104968984D01*
X80537134Y-104907661D01*
X80534300Y-104881303D01*
X80534300Y-103933945D01*
X80534299Y-103933941D01*
X80530332Y-103919137D01*
X80511448Y-103848656D01*
X80493377Y-103781215D01*
X80479870Y-103757821D01*
X80461420Y-103725864D01*
X80461420Y-103725863D01*
X80414324Y-103644290D01*
X80414321Y-103644286D01*
X80414320Y-103644284D01*
X80302516Y-103532480D01*
X80302515Y-103532479D01*
X80298185Y-103528149D01*
X80298174Y-103528139D01*
X78505937Y-101735902D01*
X93520900Y-101735902D01*
X93520900Y-101972097D01*
X93557846Y-102205368D01*
X93630833Y-102429996D01*
X93680571Y-102527611D01*
X93738057Y-102640433D01*
X93876883Y-102831510D01*
X94043890Y-102998517D01*
X94234967Y-103137343D01*
X94334391Y-103188002D01*
X94445403Y-103244566D01*
X94445405Y-103244566D01*
X94445408Y-103244568D01*
X94519565Y-103268663D01*
X94670031Y-103317553D01*
X94903303Y-103354500D01*
X94903308Y-103354500D01*
X95139497Y-103354500D01*
X95372768Y-103317553D01*
X95374270Y-103317065D01*
X95597392Y-103244568D01*
X95807833Y-103137343D01*
X95998910Y-102998517D01*
X96165917Y-102831510D01*
X96304743Y-102640433D01*
X96411968Y-102429992D01*
X96484953Y-102205368D01*
X96487117Y-102191708D01*
X96521900Y-101972097D01*
X96521900Y-101735947D01*
X98021400Y-101735947D01*
X98021400Y-101972052D01*
X98058334Y-102205247D01*
X98131297Y-102429802D01*
X98238487Y-102640174D01*
X98298738Y-102723104D01*
X98298740Y-102723105D01*
X98997612Y-102024233D01*
X99008882Y-102066292D01*
X99081290Y-102191708D01*
X99183692Y-102294110D01*
X99309108Y-102366518D01*
X99351165Y-102377787D01*
X98652293Y-103076658D01*
X98735228Y-103136914D01*
X98945597Y-103244102D01*
X99170152Y-103317065D01*
X99170151Y-103317065D01*
X99403348Y-103354000D01*
X99639452Y-103354000D01*
X99872647Y-103317065D01*
X100097202Y-103244102D01*
X100307563Y-103136918D01*
X100307569Y-103136914D01*
X100390504Y-103076658D01*
X100390505Y-103076658D01*
X99691633Y-102377787D01*
X99733692Y-102366518D01*
X99859108Y-102294110D01*
X99961510Y-102191708D01*
X100033918Y-102066292D01*
X100045187Y-102024234D01*
X100744058Y-102723105D01*
X100744058Y-102723104D01*
X100804314Y-102640169D01*
X100804318Y-102640163D01*
X100911502Y-102429802D01*
X100984465Y-102205247D01*
X101021400Y-101972052D01*
X101021400Y-101735947D01*
X100984465Y-101502752D01*
X100911502Y-101278197D01*
X100804314Y-101067828D01*
X100744058Y-100984894D01*
X100744058Y-100984893D01*
X100045187Y-101683765D01*
X100033918Y-101641708D01*
X99961510Y-101516292D01*
X99859108Y-101413890D01*
X99733692Y-101341482D01*
X99691634Y-101330212D01*
X100390505Y-100631340D01*
X100390504Y-100631338D01*
X100307574Y-100571087D01*
X100097202Y-100463897D01*
X99872647Y-100390934D01*
X99872648Y-100390934D01*
X99639452Y-100354000D01*
X99403348Y-100354000D01*
X99170152Y-100390934D01*
X98945597Y-100463897D01*
X98735230Y-100571084D01*
X98652294Y-100631340D01*
X99351166Y-101330212D01*
X99309108Y-101341482D01*
X99183692Y-101413890D01*
X99081290Y-101516292D01*
X99008882Y-101641708D01*
X98997612Y-101683766D01*
X98298740Y-100984894D01*
X98238484Y-101067830D01*
X98131297Y-101278197D01*
X98058334Y-101502752D01*
X98021400Y-101735947D01*
X96521900Y-101735947D01*
X96521900Y-101735902D01*
X96484953Y-101502631D01*
X96411966Y-101278003D01*
X96321133Y-101099735D01*
X96304743Y-101067567D01*
X96165917Y-100876490D01*
X95998910Y-100709483D01*
X95807833Y-100570657D01*
X95788660Y-100560888D01*
X95597396Y-100463433D01*
X95372768Y-100390446D01*
X95139497Y-100353500D01*
X95139492Y-100353500D01*
X94903308Y-100353500D01*
X94903303Y-100353500D01*
X94670031Y-100390446D01*
X94445403Y-100463433D01*
X94234966Y-100570657D01*
X94209856Y-100588901D01*
X94043890Y-100709483D01*
X94043888Y-100709485D01*
X94043887Y-100709485D01*
X93876885Y-100876487D01*
X93876885Y-100876488D01*
X93876883Y-100876490D01*
X93832542Y-100937520D01*
X93738057Y-101067566D01*
X93630833Y-101278003D01*
X93557846Y-101502631D01*
X93520900Y-101735902D01*
X78505937Y-101735902D01*
X77339374Y-100569339D01*
X77305889Y-100508016D01*
X77305438Y-100505849D01*
X77282482Y-100390446D01*
X77274537Y-100350503D01*
X77247031Y-100284097D01*
X77214197Y-100204827D01*
X77214190Y-100204814D01*
X77126589Y-100073711D01*
X77126586Y-100073707D01*
X77015092Y-99962213D01*
X77015088Y-99962210D01*
X76883985Y-99874609D01*
X76883972Y-99874602D01*
X76738301Y-99814264D01*
X76738289Y-99814261D01*
X76583645Y-99783500D01*
X76583642Y-99783500D01*
X76478322Y-99783500D01*
X76446229Y-99779275D01*
X76406542Y-99768641D01*
X76355257Y-99754899D01*
X76197143Y-99754899D01*
X76189547Y-99754899D01*
X76189531Y-99754900D01*
X74265166Y-99754900D01*
X74198127Y-99735215D01*
X74196275Y-99734002D01*
X74064581Y-99646007D01*
X74064572Y-99646002D01*
X73918901Y-99585664D01*
X73918889Y-99585661D01*
X73764245Y-99554900D01*
X73764242Y-99554900D01*
X73606558Y-99554900D01*
X73606555Y-99554900D01*
X73451910Y-99585661D01*
X73451898Y-99585664D01*
X73306227Y-99646002D01*
X73306219Y-99646007D01*
X73175111Y-99733610D01*
X73175107Y-99733613D01*
X73063613Y-99845107D01*
X73063610Y-99845111D01*
X72976009Y-99976214D01*
X72976002Y-99976227D01*
X72915664Y-100121898D01*
X72915661Y-100121910D01*
X72884900Y-100276553D01*
X70189438Y-100276553D01*
X70203708Y-100204814D01*
X70218699Y-100129446D01*
X70218700Y-100129444D01*
X70218700Y-99971755D01*
X70218103Y-99965693D01*
X70219814Y-99965524D01*
X70225311Y-99904094D01*
X70253018Y-99861815D01*
X71929316Y-98185519D01*
X71990639Y-98152034D01*
X72016997Y-98149200D01*
X73194534Y-98149200D01*
X73261573Y-98168885D01*
X73263425Y-98170098D01*
X73395114Y-98258090D01*
X73395127Y-98258097D01*
X73540798Y-98318435D01*
X73540803Y-98318437D01*
X73695453Y-98349199D01*
X73695456Y-98349200D01*
X73695458Y-98349200D01*
X73853144Y-98349200D01*
X73853145Y-98349199D01*
X74007797Y-98318437D01*
X74153479Y-98258094D01*
X74284589Y-98170489D01*
X74396089Y-98058989D01*
X74483694Y-97927879D01*
X74486915Y-97920104D01*
X74497970Y-97893414D01*
X74544037Y-97782197D01*
X74574800Y-97627542D01*
X74574800Y-97469858D01*
X74574800Y-97469855D01*
X74574799Y-97469853D01*
X74558097Y-97385888D01*
X74544037Y-97315203D01*
X74508059Y-97228343D01*
X74483697Y-97169527D01*
X74483690Y-97169514D01*
X74394899Y-97036630D01*
X74390666Y-97023112D01*
X74382105Y-97011830D01*
X74380434Y-96990434D01*
X74374021Y-96969953D01*
X74377661Y-96954928D01*
X74376665Y-96942172D01*
X74386295Y-96919290D01*
X74388783Y-96909024D01*
X74391592Y-96903797D01*
X74445594Y-96822979D01*
X74456457Y-96796753D01*
X75170900Y-96796753D01*
X75170900Y-96954446D01*
X75201661Y-97109089D01*
X75201664Y-97109101D01*
X75262002Y-97254772D01*
X75262009Y-97254785D01*
X75349610Y-97385888D01*
X75349613Y-97385892D01*
X75461107Y-97497386D01*
X75461111Y-97497389D01*
X75592214Y-97584990D01*
X75592227Y-97584997D01*
X75694951Y-97627546D01*
X75737903Y-97645337D01*
X75802547Y-97658195D01*
X75893249Y-97676238D01*
X75955160Y-97708623D01*
X75956739Y-97710174D01*
X79067939Y-100821374D01*
X79067949Y-100821385D01*
X79072279Y-100825715D01*
X79072280Y-100825716D01*
X79184084Y-100937520D01*
X79184086Y-100937521D01*
X79184090Y-100937524D01*
X79250015Y-100975585D01*
X79321016Y-101016577D01*
X79432819Y-101046534D01*
X79473742Y-101057500D01*
X79473743Y-101057500D01*
X87135023Y-101057500D01*
X87167116Y-101061725D01*
X87178582Y-101064797D01*
X87246143Y-101082900D01*
X87246145Y-101082900D01*
X87525539Y-101082900D01*
X87525543Y-101082901D01*
X87683657Y-101082901D01*
X87683661Y-101082900D01*
X88626590Y-101082900D01*
X88674042Y-101092338D01*
X88691903Y-101099737D01*
X88819587Y-101125135D01*
X88846553Y-101130499D01*
X88846556Y-101130500D01*
X88846558Y-101130500D01*
X89004244Y-101130500D01*
X89004245Y-101130499D01*
X89158897Y-101099737D01*
X89287341Y-101046534D01*
X89304572Y-101039397D01*
X89304572Y-101039396D01*
X89304579Y-101039394D01*
X89435689Y-100951789D01*
X89547189Y-100840289D01*
X89634794Y-100709179D01*
X89695137Y-100563497D01*
X89725900Y-100408842D01*
X89725900Y-100251158D01*
X89725900Y-100251155D01*
X89725899Y-100251153D01*
X89695137Y-100096503D01*
X89685695Y-100073707D01*
X89634797Y-99950827D01*
X89634791Y-99950816D01*
X89620074Y-99928790D01*
X89599197Y-99862112D01*
X89617682Y-99794732D01*
X89669661Y-99748043D01*
X89723177Y-99735900D01*
X90411871Y-99735900D01*
X90496415Y-99719082D01*
X90537544Y-99710901D01*
X90655927Y-99661865D01*
X90679662Y-99646006D01*
X90762469Y-99590677D01*
X91183276Y-99169870D01*
X91254465Y-99063327D01*
X91303501Y-98944944D01*
X91310296Y-98910784D01*
X91310893Y-98907783D01*
X91328500Y-98819271D01*
X91328500Y-96932902D01*
X93571700Y-96932902D01*
X93571700Y-97169097D01*
X93608646Y-97402368D01*
X93681633Y-97626996D01*
X93750580Y-97762311D01*
X93788857Y-97837433D01*
X93927683Y-98028510D01*
X94094690Y-98195517D01*
X94285767Y-98334343D01*
X94314924Y-98349199D01*
X94496203Y-98441566D01*
X94496205Y-98441566D01*
X94496208Y-98441568D01*
X94528958Y-98452209D01*
X94720831Y-98514553D01*
X94954103Y-98551500D01*
X94954108Y-98551500D01*
X95190297Y-98551500D01*
X95423568Y-98514553D01*
X95449617Y-98506089D01*
X95648192Y-98441568D01*
X95858633Y-98334343D01*
X96049710Y-98195517D01*
X96216717Y-98028510D01*
X96355543Y-97837433D01*
X96462768Y-97626992D01*
X96535753Y-97402368D01*
X96547413Y-97328748D01*
X96572700Y-97169097D01*
X96572700Y-96932947D01*
X98072200Y-96932947D01*
X98072200Y-97169052D01*
X98109134Y-97402247D01*
X98182097Y-97626802D01*
X98289287Y-97837174D01*
X98349538Y-97920104D01*
X98349540Y-97920105D01*
X99048412Y-97221233D01*
X99059682Y-97263292D01*
X99132090Y-97388708D01*
X99234492Y-97491110D01*
X99359908Y-97563518D01*
X99401965Y-97574787D01*
X98703093Y-98273658D01*
X98786028Y-98333914D01*
X98996397Y-98441102D01*
X99220952Y-98514065D01*
X99220951Y-98514065D01*
X99454148Y-98551000D01*
X99690252Y-98551000D01*
X99923447Y-98514065D01*
X100148002Y-98441102D01*
X100358363Y-98333918D01*
X100358369Y-98333914D01*
X100441304Y-98273658D01*
X100441305Y-98273658D01*
X99742433Y-97574787D01*
X99784492Y-97563518D01*
X99909908Y-97491110D01*
X100012310Y-97388708D01*
X100084718Y-97263292D01*
X100095987Y-97221234D01*
X100794858Y-97920105D01*
X100794858Y-97920104D01*
X100855114Y-97837169D01*
X100855118Y-97837163D01*
X100962302Y-97626802D01*
X101035265Y-97402247D01*
X101072200Y-97169052D01*
X101072200Y-96932947D01*
X101035265Y-96699752D01*
X100962302Y-96475197D01*
X100855114Y-96264828D01*
X100794858Y-96181894D01*
X100794858Y-96181893D01*
X100095987Y-96880765D01*
X100084718Y-96838708D01*
X100012310Y-96713292D01*
X99909908Y-96610890D01*
X99784492Y-96538482D01*
X99742434Y-96527212D01*
X100441305Y-95828340D01*
X100441304Y-95828338D01*
X100358374Y-95768087D01*
X100148002Y-95660897D01*
X99923447Y-95587934D01*
X99923448Y-95587934D01*
X99690252Y-95551000D01*
X99454148Y-95551000D01*
X99220952Y-95587934D01*
X98996397Y-95660897D01*
X98786030Y-95768084D01*
X98703094Y-95828340D01*
X99401966Y-96527212D01*
X99359908Y-96538482D01*
X99234492Y-96610890D01*
X99132090Y-96713292D01*
X99059682Y-96838708D01*
X99048412Y-96880766D01*
X98349540Y-96181894D01*
X98289284Y-96264830D01*
X98182097Y-96475197D01*
X98109134Y-96699752D01*
X98072200Y-96932947D01*
X96572700Y-96932947D01*
X96572700Y-96932902D01*
X96535753Y-96699631D01*
X96489050Y-96555896D01*
X96462768Y-96475008D01*
X96462766Y-96475005D01*
X96462766Y-96475003D01*
X96357902Y-96269197D01*
X96355543Y-96264567D01*
X96216717Y-96073490D01*
X96049710Y-95906483D01*
X95858633Y-95767657D01*
X95648196Y-95660433D01*
X95423568Y-95587446D01*
X95190297Y-95550500D01*
X95190292Y-95550500D01*
X94954108Y-95550500D01*
X94954103Y-95550500D01*
X94720831Y-95587446D01*
X94496203Y-95660433D01*
X94285766Y-95767657D01*
X94094687Y-95906485D01*
X93927685Y-96073487D01*
X93927685Y-96073488D01*
X93927683Y-96073490D01*
X93896619Y-96116246D01*
X93788857Y-96264566D01*
X93681633Y-96475003D01*
X93608646Y-96699631D01*
X93571700Y-96932902D01*
X91328500Y-96932902D01*
X91328500Y-96100328D01*
X91303502Y-95974661D01*
X91303501Y-95974660D01*
X91303501Y-95974656D01*
X91254465Y-95856273D01*
X91242441Y-95838277D01*
X91229092Y-95818298D01*
X91229092Y-95818297D01*
X91183279Y-95749734D01*
X91183273Y-95749726D01*
X88552673Y-93119126D01*
X88552669Y-93119123D01*
X88531134Y-93104734D01*
X88486330Y-93051124D01*
X88477623Y-92981799D01*
X88507777Y-92918771D01*
X88567220Y-92882051D01*
X88575835Y-92880016D01*
X88599701Y-92875268D01*
X88625497Y-92870137D01*
X88771179Y-92809794D01*
X88902289Y-92722189D01*
X89013789Y-92610689D01*
X89101394Y-92479579D01*
X89161737Y-92333897D01*
X89192500Y-92179242D01*
X89192500Y-92021558D01*
X89192500Y-92021555D01*
X89192499Y-92021553D01*
X89161738Y-91866910D01*
X89161737Y-91866903D01*
X89123114Y-91773658D01*
X89101397Y-91721227D01*
X89101390Y-91721214D01*
X89013789Y-91590111D01*
X89013786Y-91590107D01*
X88902292Y-91478613D01*
X88902288Y-91478610D01*
X88771185Y-91391009D01*
X88765809Y-91388136D01*
X88766070Y-91387646D01*
X88763660Y-91387122D01*
X88735406Y-91365971D01*
X88625590Y-91256155D01*
X88592105Y-91194832D01*
X88597089Y-91125140D01*
X88638961Y-91069207D01*
X88644348Y-91065393D01*
X88673689Y-91045789D01*
X88785189Y-90934289D01*
X88872794Y-90803179D01*
X88933137Y-90657497D01*
X88963900Y-90502842D01*
X88963900Y-90432902D01*
X93571700Y-90432902D01*
X93571700Y-90669097D01*
X93608646Y-90902368D01*
X93681633Y-91126996D01*
X93788719Y-91337163D01*
X93788857Y-91337433D01*
X93927683Y-91528510D01*
X94094690Y-91695517D01*
X94285767Y-91834343D01*
X94385191Y-91885002D01*
X94496203Y-91941566D01*
X94496205Y-91941566D01*
X94496208Y-91941568D01*
X94616612Y-91980689D01*
X94720831Y-92014553D01*
X94954103Y-92051500D01*
X94954108Y-92051500D01*
X95190297Y-92051500D01*
X95423568Y-92014553D01*
X95461294Y-92002295D01*
X95648192Y-91941568D01*
X95858633Y-91834343D01*
X96049710Y-91695517D01*
X96216717Y-91528510D01*
X96355543Y-91337433D01*
X96462768Y-91126992D01*
X96535753Y-90902368D01*
X96553121Y-90792713D01*
X96572700Y-90669097D01*
X96572700Y-90432947D01*
X98072200Y-90432947D01*
X98072200Y-90669052D01*
X98109134Y-90902247D01*
X98182097Y-91126802D01*
X98289287Y-91337174D01*
X98349538Y-91420104D01*
X98349540Y-91420105D01*
X99048412Y-90721233D01*
X99059682Y-90763292D01*
X99132090Y-90888708D01*
X99234492Y-90991110D01*
X99359908Y-91063518D01*
X99401965Y-91074787D01*
X98703093Y-91773658D01*
X98786028Y-91833914D01*
X98996397Y-91941102D01*
X99220952Y-92014065D01*
X99220951Y-92014065D01*
X99454148Y-92051000D01*
X99690252Y-92051000D01*
X99923447Y-92014065D01*
X100148002Y-91941102D01*
X100358363Y-91833918D01*
X100358369Y-91833914D01*
X100441304Y-91773658D01*
X100441305Y-91773658D01*
X99742433Y-91074787D01*
X99784492Y-91063518D01*
X99909908Y-90991110D01*
X100012310Y-90888708D01*
X100084718Y-90763292D01*
X100095987Y-90721234D01*
X100794858Y-91420105D01*
X100794858Y-91420104D01*
X100855114Y-91337169D01*
X100855118Y-91337163D01*
X100962302Y-91126802D01*
X101035265Y-90902247D01*
X101072200Y-90669052D01*
X101072200Y-90432947D01*
X101035265Y-90199752D01*
X100962302Y-89975197D01*
X100855114Y-89764828D01*
X100794858Y-89681894D01*
X100794858Y-89681893D01*
X100095987Y-90380765D01*
X100084718Y-90338708D01*
X100012310Y-90213292D01*
X99909908Y-90110890D01*
X99784492Y-90038482D01*
X99742434Y-90027212D01*
X100441305Y-89328340D01*
X100441304Y-89328338D01*
X100358374Y-89268087D01*
X100148002Y-89160897D01*
X99923447Y-89087934D01*
X99923448Y-89087934D01*
X99690252Y-89051000D01*
X99454148Y-89051000D01*
X99220952Y-89087934D01*
X98996397Y-89160897D01*
X98786030Y-89268084D01*
X98703094Y-89328340D01*
X99401966Y-90027212D01*
X99359908Y-90038482D01*
X99234492Y-90110890D01*
X99132090Y-90213292D01*
X99059682Y-90338708D01*
X99048412Y-90380766D01*
X98349540Y-89681894D01*
X98289284Y-89764830D01*
X98182097Y-89975197D01*
X98109134Y-90199752D01*
X98072200Y-90432947D01*
X96572700Y-90432947D01*
X96572700Y-90432902D01*
X96535753Y-90199631D01*
X96501889Y-90095412D01*
X96462768Y-89975008D01*
X96462766Y-89975005D01*
X96462766Y-89975003D01*
X96375541Y-89803815D01*
X96355543Y-89764567D01*
X96216717Y-89573490D01*
X96049710Y-89406483D01*
X95858633Y-89267657D01*
X95792782Y-89234104D01*
X95648196Y-89160433D01*
X95423568Y-89087446D01*
X95190297Y-89050500D01*
X95190292Y-89050500D01*
X94954108Y-89050500D01*
X94954103Y-89050500D01*
X94720831Y-89087446D01*
X94496203Y-89160433D01*
X94285766Y-89267657D01*
X94202247Y-89328338D01*
X94094690Y-89406483D01*
X94094688Y-89406485D01*
X94094687Y-89406485D01*
X93927685Y-89573487D01*
X93927685Y-89573488D01*
X93927683Y-89573490D01*
X93889176Y-89626490D01*
X93788857Y-89764566D01*
X93681633Y-89975003D01*
X93608646Y-90199631D01*
X93571700Y-90432902D01*
X88963900Y-90432902D01*
X88963900Y-90345158D01*
X88963900Y-90345155D01*
X88963899Y-90345153D01*
X88948896Y-90269728D01*
X88933137Y-90190503D01*
X88920875Y-90160900D01*
X88872797Y-90044827D01*
X88872790Y-90044814D01*
X88785189Y-89913711D01*
X88785186Y-89913707D01*
X88673692Y-89802213D01*
X88673688Y-89802210D01*
X88565009Y-89729592D01*
X88520204Y-89675979D01*
X88509900Y-89626490D01*
X88509900Y-88998745D01*
X88509900Y-88998743D01*
X88468977Y-88846016D01*
X88451227Y-88815271D01*
X88389924Y-88709090D01*
X88389918Y-88709082D01*
X88278117Y-88597281D01*
X88278109Y-88597275D01*
X88141190Y-88518226D01*
X88141186Y-88518224D01*
X88141184Y-88518223D01*
X87988457Y-88477300D01*
X87988456Y-88477300D01*
X86471700Y-88477300D01*
X86404661Y-88457615D01*
X86358906Y-88404811D01*
X86347700Y-88353300D01*
X86347700Y-88287755D01*
X86347699Y-88287753D01*
X86346778Y-88283123D01*
X86316937Y-88133103D01*
X86283509Y-88052400D01*
X86256597Y-87987427D01*
X86256590Y-87987414D01*
X86168598Y-87855725D01*
X86162947Y-87837678D01*
X86152723Y-87821769D01*
X86148271Y-87790807D01*
X86147720Y-87789047D01*
X86147700Y-87786834D01*
X86147700Y-87744460D01*
X86147701Y-87744447D01*
X86147701Y-87576344D01*
X86112363Y-87444463D01*
X86106777Y-87423616D01*
X86094471Y-87402301D01*
X86027724Y-87286690D01*
X86027718Y-87286682D01*
X84642008Y-85900972D01*
X83093815Y-84352780D01*
X83060331Y-84291458D01*
X83065315Y-84221766D01*
X83107187Y-84165833D01*
X83172651Y-84141416D01*
X83181497Y-84141100D01*
X89216900Y-84141100D01*
X89283939Y-84160785D01*
X89329694Y-84213589D01*
X89340900Y-84265100D01*
X89340900Y-84673130D01*
X89340899Y-84673148D01*
X89340899Y-84838854D01*
X89340898Y-84838854D01*
X89381823Y-84991585D01*
X89410758Y-85041700D01*
X89410759Y-85041704D01*
X89410760Y-85041704D01*
X89457774Y-85123137D01*
X89460879Y-85128514D01*
X89460881Y-85128517D01*
X89579749Y-85247385D01*
X89579755Y-85247390D01*
X89868825Y-85536460D01*
X89902310Y-85597783D01*
X89902761Y-85599949D01*
X89933661Y-85755291D01*
X89933664Y-85755301D01*
X89994002Y-85900972D01*
X89994009Y-85900985D01*
X90081610Y-86032088D01*
X90081613Y-86032092D01*
X90193107Y-86143586D01*
X90193111Y-86143589D01*
X90324214Y-86231190D01*
X90324227Y-86231197D01*
X90469898Y-86291535D01*
X90469903Y-86291537D01*
X90624553Y-86322299D01*
X90624556Y-86322300D01*
X90624558Y-86322300D01*
X90782244Y-86322300D01*
X90782245Y-86322299D01*
X90936897Y-86291537D01*
X91082579Y-86231194D01*
X91213689Y-86143589D01*
X91325189Y-86032089D01*
X91412794Y-85900979D01*
X91460957Y-85784702D01*
X93567500Y-85784702D01*
X93567500Y-86020897D01*
X93604446Y-86254168D01*
X93677433Y-86478796D01*
X93763535Y-86647779D01*
X93784657Y-86689233D01*
X93923483Y-86880310D01*
X94090490Y-87047317D01*
X94281567Y-87186143D01*
X94380991Y-87236802D01*
X94492003Y-87293366D01*
X94492005Y-87293366D01*
X94492008Y-87293368D01*
X94519806Y-87302400D01*
X94716631Y-87366353D01*
X94949903Y-87403300D01*
X94949908Y-87403300D01*
X95186097Y-87403300D01*
X95419368Y-87366353D01*
X95643992Y-87293368D01*
X95854433Y-87186143D01*
X96045510Y-87047317D01*
X96212517Y-86880310D01*
X96351343Y-86689233D01*
X96458568Y-86478792D01*
X96531553Y-86254168D01*
X96549067Y-86143589D01*
X96568500Y-86020897D01*
X96568500Y-85784702D01*
X98067500Y-85784702D01*
X98067500Y-86020897D01*
X98104446Y-86254168D01*
X98177433Y-86478796D01*
X98263535Y-86647779D01*
X98284657Y-86689233D01*
X98423483Y-86880310D01*
X98590490Y-87047317D01*
X98781567Y-87186143D01*
X98880991Y-87236802D01*
X98992003Y-87293366D01*
X98992005Y-87293366D01*
X98992008Y-87293368D01*
X99019806Y-87302400D01*
X99216631Y-87366353D01*
X99449903Y-87403300D01*
X99449908Y-87403300D01*
X99686097Y-87403300D01*
X99919368Y-87366353D01*
X100143992Y-87293368D01*
X100354433Y-87186143D01*
X100545510Y-87047317D01*
X100712517Y-86880310D01*
X100851343Y-86689233D01*
X100958568Y-86478792D01*
X101031553Y-86254168D01*
X101049067Y-86143589D01*
X101068500Y-86020897D01*
X101068500Y-85784702D01*
X101031553Y-85551431D01*
X100980790Y-85395200D01*
X100958568Y-85326808D01*
X100958566Y-85326805D01*
X100958566Y-85326803D01*
X100870467Y-85153900D01*
X100851343Y-85116367D01*
X100712517Y-84925290D01*
X100545510Y-84758283D01*
X100354433Y-84619457D01*
X100143996Y-84512233D01*
X99919368Y-84439246D01*
X99686097Y-84402300D01*
X99686092Y-84402300D01*
X99449908Y-84402300D01*
X99449903Y-84402300D01*
X99216631Y-84439246D01*
X98992003Y-84512233D01*
X98781566Y-84619457D01*
X98684980Y-84689632D01*
X98590490Y-84758283D01*
X98590488Y-84758285D01*
X98590487Y-84758285D01*
X98423485Y-84925287D01*
X98423485Y-84925288D01*
X98423483Y-84925290D01*
X98387229Y-84975189D01*
X98284657Y-85116366D01*
X98177433Y-85326803D01*
X98104446Y-85551431D01*
X98067500Y-85784702D01*
X96568500Y-85784702D01*
X96531553Y-85551431D01*
X96480790Y-85395200D01*
X96458568Y-85326808D01*
X96458566Y-85326805D01*
X96458566Y-85326803D01*
X96370467Y-85153900D01*
X96351343Y-85116367D01*
X96212517Y-84925290D01*
X96045510Y-84758283D01*
X95854433Y-84619457D01*
X95643996Y-84512233D01*
X95419368Y-84439246D01*
X95186097Y-84402300D01*
X95186092Y-84402300D01*
X94949908Y-84402300D01*
X94949903Y-84402300D01*
X94716631Y-84439246D01*
X94492003Y-84512233D01*
X94281566Y-84619457D01*
X94184980Y-84689632D01*
X94090490Y-84758283D01*
X94090488Y-84758285D01*
X94090487Y-84758285D01*
X93923485Y-84925287D01*
X93923485Y-84925288D01*
X93923483Y-84925290D01*
X93887229Y-84975189D01*
X93784657Y-85116366D01*
X93677433Y-85326803D01*
X93604446Y-85551431D01*
X93567500Y-85784702D01*
X91460957Y-85784702D01*
X91473137Y-85755297D01*
X91503900Y-85600642D01*
X91503900Y-85442958D01*
X91503900Y-85442955D01*
X91503899Y-85442953D01*
X91488281Y-85364437D01*
X91473137Y-85288303D01*
X91473135Y-85288298D01*
X91412797Y-85142627D01*
X91412790Y-85142614D01*
X91325189Y-85011511D01*
X91325186Y-85011507D01*
X91213692Y-84900013D01*
X91213688Y-84900010D01*
X91082585Y-84812409D01*
X91082572Y-84812402D01*
X90936901Y-84752064D01*
X90936891Y-84752061D01*
X90781551Y-84721162D01*
X90764794Y-84712396D01*
X90746316Y-84708377D01*
X90721277Y-84689632D01*
X90719641Y-84688777D01*
X90718062Y-84687226D01*
X90578219Y-84547383D01*
X90544734Y-84486060D01*
X90541900Y-84459702D01*
X90541900Y-83461545D01*
X90541900Y-83461543D01*
X90500977Y-83308816D01*
X90445685Y-83213046D01*
X90421924Y-83171890D01*
X90421918Y-83171882D01*
X90310117Y-83060081D01*
X90310109Y-83060075D01*
X90173190Y-82981026D01*
X90173186Y-82981024D01*
X90173184Y-82981023D01*
X90020457Y-82940100D01*
X90020456Y-82940100D01*
X82697698Y-82940100D01*
X82630659Y-82920415D01*
X82610017Y-82903781D01*
X81525173Y-81818937D01*
X81491688Y-81757614D01*
X81491237Y-81755447D01*
X81460338Y-81600110D01*
X81460337Y-81600103D01*
X81423446Y-81511039D01*
X81399997Y-81454427D01*
X81399990Y-81454414D01*
X81312389Y-81323311D01*
X81312386Y-81323307D01*
X81200892Y-81211813D01*
X81200888Y-81211810D01*
X81069785Y-81124209D01*
X81069772Y-81124202D01*
X80924101Y-81063864D01*
X80924089Y-81063861D01*
X80769445Y-81033100D01*
X80769442Y-81033100D01*
X80611758Y-81033100D01*
X80611755Y-81033100D01*
X80457110Y-81063861D01*
X80457098Y-81063864D01*
X80311427Y-81124202D01*
X80311414Y-81124209D01*
X80180311Y-81211810D01*
X80125086Y-81267035D01*
X80063762Y-81300519D01*
X79994070Y-81295534D01*
X79975405Y-81286740D01*
X79962386Y-81279223D01*
X79911253Y-81265522D01*
X79809657Y-81238299D01*
X79651543Y-81238299D01*
X79643947Y-81238299D01*
X79643931Y-81238300D01*
X79421366Y-81238300D01*
X79354327Y-81218615D01*
X79352475Y-81217402D01*
X79220785Y-81129409D01*
X79220772Y-81129402D01*
X79075101Y-81069064D01*
X79075089Y-81069061D01*
X78920445Y-81038300D01*
X78920442Y-81038300D01*
X78762758Y-81038300D01*
X78762755Y-81038300D01*
X78608110Y-81069061D01*
X78608098Y-81069064D01*
X78462427Y-81129402D01*
X78462414Y-81129409D01*
X78345384Y-81207607D01*
X78278706Y-81228485D01*
X78211326Y-81210000D01*
X78207602Y-81207607D01*
X78128585Y-81154809D01*
X78128572Y-81154802D01*
X77982901Y-81094464D01*
X77982891Y-81094461D01*
X77848708Y-81067770D01*
X77820577Y-81053055D01*
X77791697Y-81039866D01*
X77789840Y-81036976D01*
X77786797Y-81035385D01*
X77771084Y-81007792D01*
X77753923Y-80981088D01*
X77753262Y-80976494D01*
X77752223Y-80974669D01*
X77748900Y-80946153D01*
X77748900Y-80860297D01*
X77768585Y-80793258D01*
X77785213Y-80772621D01*
X77865663Y-80692171D01*
X77926982Y-80658689D01*
X77929150Y-80658238D01*
X77987085Y-80646713D01*
X78084497Y-80627337D01*
X78230179Y-80566994D01*
X78361289Y-80479389D01*
X78472789Y-80367889D01*
X78560394Y-80236779D01*
X78585632Y-80175847D01*
X78629472Y-80121444D01*
X78695766Y-80099379D01*
X78700193Y-80099300D01*
X78742644Y-80099300D01*
X78742645Y-80099299D01*
X78897297Y-80068537D01*
X79042979Y-80008194D01*
X79174089Y-79920589D01*
X79285589Y-79809089D01*
X79330975Y-79741163D01*
X79376579Y-79672914D01*
X79378109Y-79673936D01*
X79421024Y-79630243D01*
X79489161Y-79614777D01*
X79554842Y-79638604D01*
X79569109Y-79650855D01*
X79878784Y-79960530D01*
X79912269Y-80021853D01*
X79912720Y-80024020D01*
X79926061Y-80091089D01*
X79926064Y-80091101D01*
X79986402Y-80236772D01*
X79986409Y-80236785D01*
X80074010Y-80367888D01*
X80074013Y-80367892D01*
X80185507Y-80479386D01*
X80185511Y-80479389D01*
X80316614Y-80566990D01*
X80316627Y-80566997D01*
X80430913Y-80614335D01*
X80462303Y-80627337D01*
X80572512Y-80649259D01*
X80616953Y-80658099D01*
X80616956Y-80658100D01*
X80616958Y-80658100D01*
X80774644Y-80658100D01*
X80774645Y-80658099D01*
X80929297Y-80627337D01*
X81074979Y-80566994D01*
X81206089Y-80479389D01*
X81317589Y-80367889D01*
X81405194Y-80236779D01*
X81465537Y-80091097D01*
X81496300Y-79936442D01*
X81496438Y-79935750D01*
X81528823Y-79873839D01*
X81530318Y-79872316D01*
X82117932Y-79284702D01*
X93567500Y-79284702D01*
X93567500Y-79520897D01*
X93604446Y-79754168D01*
X93677433Y-79978796D01*
X93773728Y-80167784D01*
X93784657Y-80189233D01*
X93923483Y-80380310D01*
X94090490Y-80547317D01*
X94281567Y-80686143D01*
X94380991Y-80736802D01*
X94492003Y-80793366D01*
X94492005Y-80793366D01*
X94492008Y-80793368D01*
X94612412Y-80832489D01*
X94716631Y-80866353D01*
X94949903Y-80903300D01*
X94949908Y-80903300D01*
X95186097Y-80903300D01*
X95419368Y-80866353D01*
X95445959Y-80857713D01*
X95643992Y-80793368D01*
X95854433Y-80686143D01*
X96045510Y-80547317D01*
X96212517Y-80380310D01*
X96351343Y-80189233D01*
X96458568Y-79978792D01*
X96531553Y-79754168D01*
X96543620Y-79677979D01*
X96568500Y-79520897D01*
X96568500Y-79284702D01*
X98067500Y-79284702D01*
X98067500Y-79520897D01*
X98104446Y-79754168D01*
X98177433Y-79978796D01*
X98273728Y-80167784D01*
X98284657Y-80189233D01*
X98423483Y-80380310D01*
X98590490Y-80547317D01*
X98781567Y-80686143D01*
X98880991Y-80736802D01*
X98992003Y-80793366D01*
X98992005Y-80793366D01*
X98992008Y-80793368D01*
X99112412Y-80832489D01*
X99216631Y-80866353D01*
X99449903Y-80903300D01*
X99449908Y-80903300D01*
X99686097Y-80903300D01*
X99919368Y-80866353D01*
X99945959Y-80857713D01*
X100143992Y-80793368D01*
X100354433Y-80686143D01*
X100545510Y-80547317D01*
X100712517Y-80380310D01*
X100851343Y-80189233D01*
X100958568Y-79978792D01*
X101031553Y-79754168D01*
X101043620Y-79677979D01*
X101068500Y-79520897D01*
X101068500Y-79284702D01*
X101031553Y-79051431D01*
X100977582Y-78885328D01*
X100958568Y-78826808D01*
X100958566Y-78826805D01*
X100958566Y-78826803D01*
X100851342Y-78616366D01*
X100825054Y-78580184D01*
X100712517Y-78425290D01*
X100545510Y-78258283D01*
X100354433Y-78119457D01*
X100143996Y-78012233D01*
X99919368Y-77939246D01*
X99686097Y-77902300D01*
X99686092Y-77902300D01*
X99449908Y-77902300D01*
X99449903Y-77902300D01*
X99216631Y-77939246D01*
X98992003Y-78012233D01*
X98781566Y-78119457D01*
X98672550Y-78198662D01*
X98590490Y-78258283D01*
X98590488Y-78258285D01*
X98590487Y-78258285D01*
X98423485Y-78425287D01*
X98423485Y-78425288D01*
X98423483Y-78425290D01*
X98363862Y-78507350D01*
X98284657Y-78616366D01*
X98177433Y-78826803D01*
X98104446Y-79051431D01*
X98067500Y-79284702D01*
X96568500Y-79284702D01*
X96531553Y-79051431D01*
X96477582Y-78885328D01*
X96458568Y-78826808D01*
X96458566Y-78826805D01*
X96458566Y-78826803D01*
X96351342Y-78616366D01*
X96325054Y-78580184D01*
X96212517Y-78425290D01*
X96045510Y-78258283D01*
X95854433Y-78119457D01*
X95643996Y-78012233D01*
X95419368Y-77939246D01*
X95186097Y-77902300D01*
X95186092Y-77902300D01*
X94949908Y-77902300D01*
X94949903Y-77902300D01*
X94716631Y-77939246D01*
X94492003Y-78012233D01*
X94281566Y-78119457D01*
X94172550Y-78198662D01*
X94090490Y-78258283D01*
X94090488Y-78258285D01*
X94090487Y-78258285D01*
X93923485Y-78425287D01*
X93923485Y-78425288D01*
X93923483Y-78425290D01*
X93863862Y-78507350D01*
X93784657Y-78616366D01*
X93677433Y-78826803D01*
X93604446Y-79051431D01*
X93567500Y-79284702D01*
X82117932Y-79284702D01*
X84960920Y-76441716D01*
X85039977Y-76304784D01*
X85080901Y-76152057D01*
X85080901Y-75993942D01*
X85080901Y-75986347D01*
X85080900Y-75986329D01*
X85080900Y-75865365D01*
X85100585Y-75798326D01*
X85101798Y-75796474D01*
X85189790Y-75664785D01*
X85189790Y-75664784D01*
X85189794Y-75664779D01*
X85250137Y-75519097D01*
X85280900Y-75364442D01*
X85280900Y-75206758D01*
X85280900Y-75206755D01*
X85280899Y-75206753D01*
X85264236Y-75122984D01*
X85250137Y-75052103D01*
X85213312Y-74963198D01*
X85189797Y-74906427D01*
X85189790Y-74906414D01*
X85102189Y-74775311D01*
X85102186Y-74775307D01*
X84990692Y-74663813D01*
X84990688Y-74663810D01*
X84859585Y-74576209D01*
X84859572Y-74576202D01*
X84713901Y-74515864D01*
X84713889Y-74515861D01*
X84559245Y-74485100D01*
X84559242Y-74485100D01*
X84401558Y-74485100D01*
X84401555Y-74485100D01*
X84246910Y-74515861D01*
X84246898Y-74515864D01*
X84101227Y-74576202D01*
X84101214Y-74576209D01*
X83970111Y-74663810D01*
X83970107Y-74663813D01*
X83858613Y-74775307D01*
X83858610Y-74775311D01*
X83771009Y-74906414D01*
X83771002Y-74906427D01*
X83710664Y-75052098D01*
X83710661Y-75052110D01*
X83679900Y-75206753D01*
X83679900Y-75364446D01*
X83710661Y-75519089D01*
X83710664Y-75519101D01*
X83771002Y-75664772D01*
X83771009Y-75664784D01*
X83821966Y-75741046D01*
X83842844Y-75807723D01*
X83824360Y-75875103D01*
X83806545Y-75897618D01*
X80818836Y-78885328D01*
X80757513Y-78918813D01*
X80687821Y-78913829D01*
X80643474Y-78885328D01*
X77118615Y-75360469D01*
X77085130Y-75299146D01*
X77084693Y-75297052D01*
X77071337Y-75229903D01*
X77040425Y-75155274D01*
X77010997Y-75084227D01*
X77010990Y-75084214D01*
X76923389Y-74953111D01*
X76923386Y-74953107D01*
X76811892Y-74841613D01*
X76811888Y-74841610D01*
X76680785Y-74754009D01*
X76680772Y-74754002D01*
X76535101Y-74693664D01*
X76535089Y-74693661D01*
X76380445Y-74662900D01*
X76380442Y-74662900D01*
X76222758Y-74662900D01*
X76222755Y-74662900D01*
X76068110Y-74693661D01*
X76068098Y-74693664D01*
X75922427Y-74754002D01*
X75922414Y-74754009D01*
X75791311Y-74841610D01*
X75791307Y-74841613D01*
X75679813Y-74953107D01*
X75679810Y-74953111D01*
X75592209Y-75084214D01*
X75592202Y-75084227D01*
X75531864Y-75229898D01*
X75531861Y-75229910D01*
X75501100Y-75384553D01*
X75501100Y-75542246D01*
X75531861Y-75696889D01*
X75531864Y-75696901D01*
X75592202Y-75842572D01*
X75592209Y-75842585D01*
X75679810Y-75973688D01*
X75679813Y-75973692D01*
X75791307Y-76085186D01*
X75791311Y-76085189D01*
X75922414Y-76172790D01*
X75922427Y-76172797D01*
X75958680Y-76187813D01*
X76068103Y-76233137D01*
X76135180Y-76246479D01*
X76197090Y-76278863D01*
X76198669Y-76280415D01*
X77744473Y-77826219D01*
X77777958Y-77887542D01*
X77772974Y-77957234D01*
X77731102Y-78013167D01*
X77665638Y-78037584D01*
X77656792Y-78037900D01*
X77084566Y-78037900D01*
X77017527Y-78018215D01*
X77015675Y-78017002D01*
X76883985Y-77929009D01*
X76883972Y-77929002D01*
X76738301Y-77868664D01*
X76738289Y-77868661D01*
X76583645Y-77837900D01*
X76583642Y-77837900D01*
X76425958Y-77837900D01*
X76425955Y-77837900D01*
X76271310Y-77868661D01*
X76271298Y-77868664D01*
X76125627Y-77929002D01*
X76125614Y-77929009D01*
X75994511Y-78016610D01*
X75994507Y-78016613D01*
X75883013Y-78128107D01*
X75883010Y-78128111D01*
X75795409Y-78259214D01*
X75795402Y-78259227D01*
X75735064Y-78404898D01*
X75735061Y-78404910D01*
X75704300Y-78559553D01*
X75704300Y-78717246D01*
X75735061Y-78871889D01*
X75735064Y-78871901D01*
X75795402Y-79017572D01*
X75795409Y-79017585D01*
X75883010Y-79148688D01*
X75883013Y-79148692D01*
X75994507Y-79260186D01*
X75994511Y-79260189D01*
X76125614Y-79347790D01*
X76125627Y-79347797D01*
X76242834Y-79396345D01*
X76271303Y-79408137D01*
X76425953Y-79438899D01*
X76425956Y-79438900D01*
X76425958Y-79438900D01*
X76583644Y-79438900D01*
X76583645Y-79438899D01*
X76738297Y-79408137D01*
X76883979Y-79347794D01*
X76988747Y-79277789D01*
X77055424Y-79256912D01*
X77122804Y-79275396D01*
X77169495Y-79327375D01*
X77180671Y-79396345D01*
X77160741Y-79449781D01*
X77141611Y-79478411D01*
X77141602Y-79478427D01*
X77081264Y-79624098D01*
X77081261Y-79624108D01*
X77050361Y-79779450D01*
X77017976Y-79841361D01*
X77016425Y-79842939D01*
X76667881Y-80191482D01*
X76667875Y-80191490D01*
X76634067Y-80250049D01*
X76634067Y-80250051D01*
X76588823Y-80328414D01*
X76588823Y-80328415D01*
X76547899Y-80481143D01*
X76547899Y-80481145D01*
X76547899Y-80649246D01*
X76547900Y-80649259D01*
X76547900Y-82026473D01*
X76547899Y-82026491D01*
X76547899Y-82192197D01*
X76547898Y-82192197D01*
X76547899Y-82192200D01*
X76588823Y-82344928D01*
X76588824Y-82344930D01*
X76588823Y-82344930D01*
X76600102Y-82364464D01*
X76600103Y-82364466D01*
X76667875Y-82481852D01*
X76667881Y-82481860D01*
X76786749Y-82600728D01*
X76786754Y-82600732D01*
X77699141Y-83513120D01*
X77699143Y-83513121D01*
X77699147Y-83513124D01*
X77836066Y-83592173D01*
X77836073Y-83592177D01*
X77988800Y-83633101D01*
X77988802Y-83633101D01*
X78154511Y-83633101D01*
X78154527Y-83633100D01*
X79346003Y-83633100D01*
X79413042Y-83652785D01*
X79433684Y-83669419D01*
X83496531Y-87732266D01*
X83530016Y-87793589D01*
X83532850Y-87819947D01*
X83532850Y-88283123D01*
X83532849Y-88283141D01*
X83532849Y-88448847D01*
X83532848Y-88448847D01*
X83573773Y-88601580D01*
X83582917Y-88617416D01*
X83582916Y-88617416D01*
X83582918Y-88617418D01*
X83652825Y-88738502D01*
X83652831Y-88738510D01*
X83771699Y-88857378D01*
X83771704Y-88857382D01*
X84955241Y-90040920D01*
X84955243Y-90040921D01*
X84955247Y-90040924D01*
X85076434Y-90110890D01*
X85092173Y-90119977D01*
X85244900Y-90160901D01*
X85244902Y-90160901D01*
X85410611Y-90160901D01*
X85410627Y-90160900D01*
X85925343Y-90160900D01*
X86783900Y-90160900D01*
X86850939Y-90180585D01*
X86896694Y-90233389D01*
X86907900Y-90284900D01*
X86907900Y-90901530D01*
X86907899Y-90901548D01*
X86907899Y-90909143D01*
X86907899Y-91067257D01*
X86928740Y-91145036D01*
X86948822Y-91219983D01*
X86949211Y-91220656D01*
X86949222Y-91220676D01*
X87027877Y-91356912D01*
X87027881Y-91356917D01*
X87146749Y-91475785D01*
X87146755Y-91475790D01*
X87561393Y-91890428D01*
X87594878Y-91951751D01*
X87595330Y-92002295D01*
X87591500Y-92021551D01*
X87591500Y-92179246D01*
X87622261Y-92333889D01*
X87622264Y-92333901D01*
X87682602Y-92479572D01*
X87682609Y-92479585D01*
X87770210Y-92610688D01*
X87770213Y-92610692D01*
X87881707Y-92722186D01*
X87881711Y-92722189D01*
X87918540Y-92746798D01*
X87963345Y-92800411D01*
X87972052Y-92869736D01*
X87941897Y-92932763D01*
X87882454Y-92969482D01*
X87849649Y-92973900D01*
X79600535Y-92973900D01*
X79533496Y-92954215D01*
X79531690Y-92953033D01*
X79474779Y-92915006D01*
X79474772Y-92915002D01*
X79329101Y-92854664D01*
X79329089Y-92854661D01*
X79174445Y-92823900D01*
X79174442Y-92823900D01*
X79016758Y-92823900D01*
X79016755Y-92823900D01*
X78862110Y-92854661D01*
X78862098Y-92854664D01*
X78716427Y-92915002D01*
X78716414Y-92915009D01*
X78585311Y-93002610D01*
X78585307Y-93002613D01*
X78473813Y-93114107D01*
X78473810Y-93114111D01*
X78386209Y-93245214D01*
X78386202Y-93245227D01*
X78325864Y-93390898D01*
X78325861Y-93390910D01*
X78295100Y-93545553D01*
X78295100Y-93592868D01*
X78275415Y-93659907D01*
X78222611Y-93705662D01*
X78195294Y-93714485D01*
X78176305Y-93718262D01*
X78176298Y-93718264D01*
X78030627Y-93778602D01*
X78030614Y-93778609D01*
X77906438Y-93861582D01*
X77839760Y-93882460D01*
X77772380Y-93863975D01*
X77725690Y-93811997D01*
X77722985Y-93805931D01*
X77722194Y-93804021D01*
X77722190Y-93804014D01*
X77634589Y-93672911D01*
X77634586Y-93672907D01*
X77523092Y-93561413D01*
X77523088Y-93561410D01*
X77391985Y-93473809D01*
X77391972Y-93473802D01*
X77246301Y-93413464D01*
X77246289Y-93413461D01*
X77091645Y-93382700D01*
X77091642Y-93382700D01*
X76933958Y-93382700D01*
X76933955Y-93382700D01*
X76779310Y-93413461D01*
X76779298Y-93413464D01*
X76633627Y-93473802D01*
X76633614Y-93473809D01*
X76502511Y-93561410D01*
X76502507Y-93561413D01*
X76391013Y-93672907D01*
X76391010Y-93672911D01*
X76303409Y-93804014D01*
X76303402Y-93804027D01*
X76243064Y-93949698D01*
X76243061Y-93949710D01*
X76212300Y-94104353D01*
X76212300Y-94262046D01*
X76243061Y-94416689D01*
X76243064Y-94416701D01*
X76303402Y-94562372D01*
X76303409Y-94562385D01*
X76391402Y-94694074D01*
X76412280Y-94760751D01*
X76412300Y-94762965D01*
X76412300Y-95302073D01*
X76412299Y-95302091D01*
X76412299Y-95467797D01*
X76412298Y-95467797D01*
X76434459Y-95550500D01*
X76453223Y-95620528D01*
X76466371Y-95643300D01*
X76499804Y-95701208D01*
X76532279Y-95757458D01*
X76651149Y-95876328D01*
X76651155Y-95876333D01*
X79818196Y-99043374D01*
X79818206Y-99043385D01*
X79822536Y-99047715D01*
X79822537Y-99047716D01*
X79934341Y-99159520D01*
X80021152Y-99209639D01*
X80021154Y-99209641D01*
X80059208Y-99231611D01*
X80071272Y-99238577D01*
X80224000Y-99279500D01*
X88208890Y-99279500D01*
X88222568Y-99283516D01*
X88236802Y-99282682D01*
X88255427Y-99293164D01*
X88275929Y-99299185D01*
X88286438Y-99310619D01*
X88297690Y-99316952D01*
X88311440Y-99337820D01*
X88318477Y-99345476D01*
X88321211Y-99350640D01*
X88368406Y-99464579D01*
X88431677Y-99559271D01*
X88434645Y-99564876D01*
X88440416Y-99593150D01*
X88449038Y-99620687D01*
X88447317Y-99626960D01*
X88448618Y-99633334D01*
X88438187Y-99660238D01*
X88430553Y-99688067D01*
X88424367Y-99695884D01*
X88423362Y-99698479D01*
X88420889Y-99700280D01*
X88412740Y-99710581D01*
X88303610Y-99819711D01*
X88298880Y-99826791D01*
X88245268Y-99871596D01*
X88195778Y-99881900D01*
X87769379Y-99881900D01*
X87737285Y-99877675D01*
X87725843Y-99874609D01*
X87658257Y-99856499D01*
X87500143Y-99856499D01*
X87492547Y-99856499D01*
X87492531Y-99856500D01*
X79852897Y-99856500D01*
X79785858Y-99836815D01*
X79765216Y-99820181D01*
X76805974Y-96860939D01*
X76772489Y-96799616D01*
X76772038Y-96797449D01*
X76748138Y-96677301D01*
X76741137Y-96642103D01*
X76698216Y-96538482D01*
X76680797Y-96496427D01*
X76680790Y-96496414D01*
X76593189Y-96365311D01*
X76593186Y-96365307D01*
X76481692Y-96253813D01*
X76481688Y-96253810D01*
X76350585Y-96166209D01*
X76350572Y-96166202D01*
X76204901Y-96105864D01*
X76204889Y-96105861D01*
X76050245Y-96075100D01*
X76050242Y-96075100D01*
X75892558Y-96075100D01*
X75892555Y-96075100D01*
X75737910Y-96105861D01*
X75737898Y-96105864D01*
X75592227Y-96166202D01*
X75592214Y-96166209D01*
X75461111Y-96253810D01*
X75461107Y-96253813D01*
X75349613Y-96365307D01*
X75349610Y-96365311D01*
X75262009Y-96496414D01*
X75262002Y-96496427D01*
X75201664Y-96642098D01*
X75201661Y-96642110D01*
X75170900Y-96796753D01*
X74456457Y-96796753D01*
X74505937Y-96677297D01*
X74536700Y-96522642D01*
X74536700Y-96364958D01*
X74536700Y-96364955D01*
X74536699Y-96364953D01*
X74516731Y-96264567D01*
X74505937Y-96210303D01*
X74494169Y-96181893D01*
X74445597Y-96064627D01*
X74445590Y-96064614D01*
X74357989Y-95933511D01*
X74357986Y-95933507D01*
X74246492Y-95822013D01*
X74241781Y-95818147D01*
X74243214Y-95816399D01*
X74204889Y-95770534D01*
X74196186Y-95701208D01*
X74226345Y-95638183D01*
X74230888Y-95633389D01*
X74307189Y-95557089D01*
X74394794Y-95425979D01*
X74398544Y-95416927D01*
X74442965Y-95309682D01*
X74455137Y-95280297D01*
X74485900Y-95125642D01*
X74485900Y-94967958D01*
X74485900Y-94967955D01*
X74485899Y-94967953D01*
X74484620Y-94961525D01*
X74455137Y-94813303D01*
X74445510Y-94790061D01*
X74394797Y-94667627D01*
X74394790Y-94667614D01*
X74307189Y-94536511D01*
X74307186Y-94536507D01*
X74195692Y-94425013D01*
X74195688Y-94425010D01*
X74064585Y-94337409D01*
X74064572Y-94337402D01*
X73918901Y-94277064D01*
X73918889Y-94277061D01*
X73764245Y-94246300D01*
X73764242Y-94246300D01*
X73606558Y-94246300D01*
X73606555Y-94246300D01*
X73451910Y-94277061D01*
X73451898Y-94277064D01*
X73306227Y-94337402D01*
X73306214Y-94337409D01*
X73174525Y-94425402D01*
X73107847Y-94446280D01*
X73105634Y-94446300D01*
X72951657Y-94446300D01*
X72793542Y-94446300D01*
X72640815Y-94487223D01*
X72640814Y-94487223D01*
X72640812Y-94487224D01*
X72640809Y-94487225D01*
X72590696Y-94516159D01*
X72590695Y-94516160D01*
X72555453Y-94536507D01*
X72503885Y-94566279D01*
X72503882Y-94566281D01*
X72108639Y-94961525D01*
X72047316Y-94995010D01*
X72045150Y-94995461D01*
X71889808Y-95026361D01*
X71889798Y-95026364D01*
X71744127Y-95086702D01*
X71744114Y-95086709D01*
X71613011Y-95174310D01*
X71613007Y-95174313D01*
X71501513Y-95285807D01*
X71501510Y-95285811D01*
X71413909Y-95416914D01*
X71413902Y-95416927D01*
X71353564Y-95562598D01*
X71353561Y-95562610D01*
X71322800Y-95717253D01*
X71322800Y-95719300D01*
X71322497Y-95720331D01*
X71322203Y-95723318D01*
X71321636Y-95723262D01*
X71320249Y-95727985D01*
X71321538Y-95736947D01*
X71310559Y-95760987D01*
X71303115Y-95786339D01*
X71296274Y-95792266D01*
X71292513Y-95800503D01*
X71270278Y-95814792D01*
X71250311Y-95832094D01*
X71239796Y-95834381D01*
X71233735Y-95838277D01*
X71198800Y-95843300D01*
X71079669Y-95843300D01*
X71079653Y-95843299D01*
X71072057Y-95843299D01*
X70913943Y-95843299D01*
X70817046Y-95869263D01*
X70761214Y-95884223D01*
X70722660Y-95906483D01*
X70722659Y-95906483D01*
X70624287Y-95963277D01*
X70624284Y-95963280D01*
X69648881Y-96938682D01*
X69648879Y-96938684D01*
X69630827Y-96969953D01*
X69619759Y-96989124D01*
X69569823Y-97075615D01*
X69528899Y-97228343D01*
X69528899Y-97228345D01*
X69528899Y-97396446D01*
X69528900Y-97396459D01*
X69528900Y-97692834D01*
X69509215Y-97759873D01*
X69508002Y-97761725D01*
X69420009Y-97893414D01*
X69420002Y-97893427D01*
X69359664Y-98039098D01*
X69359661Y-98039110D01*
X69328900Y-98193753D01*
X69328900Y-98351446D01*
X69359661Y-98506089D01*
X69359664Y-98506101D01*
X69420002Y-98651772D01*
X69420009Y-98651785D01*
X69501487Y-98773725D01*
X69522365Y-98840403D01*
X69503880Y-98907783D01*
X69486067Y-98930297D01*
X69278084Y-99138281D01*
X69136865Y-99279499D01*
X69118153Y-99298211D01*
X69077929Y-99325088D01*
X69039022Y-99341205D01*
X69039018Y-99341207D01*
X68907915Y-99428807D01*
X68907907Y-99428813D01*
X68796413Y-99540307D01*
X68796410Y-99540311D01*
X68708809Y-99671414D01*
X68708802Y-99671427D01*
X68648464Y-99817098D01*
X68648461Y-99817110D01*
X68617700Y-99971753D01*
X59627700Y-99971753D01*
X59627700Y-99466204D01*
X59637139Y-99418751D01*
X59646937Y-99395097D01*
X59677700Y-99240442D01*
X59677700Y-99082758D01*
X59677700Y-99082755D01*
X59677699Y-99082753D01*
X59646938Y-98928110D01*
X59646937Y-98928103D01*
X59586788Y-98782889D01*
X59586597Y-98782427D01*
X59586590Y-98782414D01*
X59498989Y-98651311D01*
X59498986Y-98651307D01*
X59387492Y-98539813D01*
X59387488Y-98539810D01*
X59256385Y-98452209D01*
X59256372Y-98452202D01*
X59110701Y-98391864D01*
X59110689Y-98391861D01*
X58956045Y-98361100D01*
X58956042Y-98361100D01*
X58798358Y-98361100D01*
X58798355Y-98361100D01*
X58643710Y-98391861D01*
X58643698Y-98391864D01*
X58498027Y-98452202D01*
X58498014Y-98452209D01*
X58366911Y-98539810D01*
X58366907Y-98539813D01*
X58255413Y-98651307D01*
X58255410Y-98651311D01*
X58167809Y-98782414D01*
X58167802Y-98782427D01*
X58107464Y-98928098D01*
X58107461Y-98928110D01*
X58076700Y-99082753D01*
X58076700Y-99240446D01*
X58107461Y-99395089D01*
X58107463Y-99395097D01*
X58117261Y-99418751D01*
X58126700Y-99466204D01*
X58126700Y-105101955D01*
X58107015Y-105168994D01*
X58069974Y-105203258D01*
X58071286Y-105205221D01*
X57935111Y-105296210D01*
X57935107Y-105296213D01*
X57823613Y-105407707D01*
X57823610Y-105407711D01*
X57736009Y-105538814D01*
X57736002Y-105538827D01*
X57675664Y-105684498D01*
X57675661Y-105684510D01*
X57644900Y-105839153D01*
X54219100Y-105839153D01*
X54219100Y-96866208D01*
X54238785Y-96799169D01*
X54255419Y-96778527D01*
X54787327Y-96246619D01*
X54848650Y-96213134D01*
X54875008Y-96210300D01*
X61593065Y-96210300D01*
X61660104Y-96229985D01*
X61661909Y-96231166D01*
X61718821Y-96269194D01*
X61718823Y-96269195D01*
X61718827Y-96269197D01*
X61864498Y-96329535D01*
X61864503Y-96329537D01*
X62019153Y-96360299D01*
X62019156Y-96360300D01*
X62019158Y-96360300D01*
X62176844Y-96360300D01*
X62176845Y-96360299D01*
X62331497Y-96329537D01*
X62477179Y-96269194D01*
X62608289Y-96181589D01*
X62719789Y-96070089D01*
X62807394Y-95938979D01*
X62867737Y-95793297D01*
X62898500Y-95638642D01*
X62898500Y-95480958D01*
X62898500Y-95480955D01*
X62898499Y-95480953D01*
X62887564Y-95425979D01*
X62867737Y-95326303D01*
X62860854Y-95309686D01*
X62807397Y-95180627D01*
X62807390Y-95180614D01*
X62719789Y-95049511D01*
X62719786Y-95049507D01*
X62608292Y-94938013D01*
X62608288Y-94938010D01*
X62477185Y-94850409D01*
X62477172Y-94850402D01*
X62331501Y-94790064D01*
X62331489Y-94790061D01*
X62176845Y-94759300D01*
X62176842Y-94759300D01*
X62019158Y-94759300D01*
X62019155Y-94759300D01*
X61864510Y-94790061D01*
X61864498Y-94790064D01*
X61718827Y-94850402D01*
X61718820Y-94850406D01*
X61693729Y-94867172D01*
X61661955Y-94888402D01*
X61595279Y-94909280D01*
X61593065Y-94909300D01*
X54490129Y-94909300D01*
X54364461Y-94934297D01*
X54364455Y-94934299D01*
X54246074Y-94983334D01*
X54139526Y-95054526D01*
X53388385Y-95805667D01*
X53327062Y-95839152D01*
X53257370Y-95834168D01*
X53201437Y-95792296D01*
X53177020Y-95726832D01*
X53176704Y-95718053D01*
X53174346Y-89652383D01*
X55835700Y-89652383D01*
X55835700Y-90952401D01*
X55835701Y-90952418D01*
X55846200Y-91055196D01*
X55846201Y-91055199D01*
X55900806Y-91219983D01*
X55901386Y-91221734D01*
X55993488Y-91371056D01*
X56117544Y-91495112D01*
X56266866Y-91587214D01*
X56433403Y-91642399D01*
X56536191Y-91652900D01*
X58136208Y-91652899D01*
X58238997Y-91642399D01*
X58405534Y-91587214D01*
X58554856Y-91495112D01*
X58678912Y-91371056D01*
X58771014Y-91221734D01*
X58826199Y-91055197D01*
X58836700Y-90952409D01*
X58836699Y-89652392D01*
X58832554Y-89611819D01*
X58826199Y-89549603D01*
X58826198Y-89549600D01*
X58778774Y-89406485D01*
X58771014Y-89383066D01*
X58678912Y-89233744D01*
X58554856Y-89109688D01*
X58405534Y-89017586D01*
X58405532Y-89017585D01*
X58399640Y-89013951D01*
X58352916Y-88962003D01*
X58341693Y-88893041D01*
X58369537Y-88828958D01*
X58377056Y-88820730D01*
X58515928Y-88681858D01*
X58640820Y-88509957D01*
X58737295Y-88320617D01*
X58797490Y-88135353D01*
X71589500Y-88135353D01*
X71589500Y-88293046D01*
X71620261Y-88447689D01*
X71620264Y-88447701D01*
X71680602Y-88593372D01*
X71680609Y-88593385D01*
X71768210Y-88724488D01*
X71768213Y-88724492D01*
X71879707Y-88835986D01*
X71879711Y-88835989D01*
X72010814Y-88923590D01*
X72010827Y-88923597D01*
X72103549Y-88962003D01*
X72156503Y-88983937D01*
X72307393Y-89013951D01*
X72311153Y-89014699D01*
X72311156Y-89014700D01*
X72311158Y-89014700D01*
X72468844Y-89014700D01*
X72468845Y-89014699D01*
X72623497Y-88983937D01*
X72758436Y-88928044D01*
X72769172Y-88923597D01*
X72769172Y-88923596D01*
X72769179Y-88923594D01*
X72868271Y-88857383D01*
X72900875Y-88835598D01*
X72918921Y-88829947D01*
X72934831Y-88819723D01*
X72965792Y-88815271D01*
X72967553Y-88814720D01*
X72969766Y-88814700D01*
X73080503Y-88814700D01*
X73147542Y-88834385D01*
X73168184Y-88851019D01*
X73928983Y-89611819D01*
X73962468Y-89673142D01*
X73957484Y-89742834D01*
X73915612Y-89798767D01*
X73850148Y-89823184D01*
X73841302Y-89823500D01*
X73020566Y-89823500D01*
X72953527Y-89803815D01*
X72951675Y-89802602D01*
X72819985Y-89714609D01*
X72819972Y-89714602D01*
X72674301Y-89654264D01*
X72674289Y-89654261D01*
X72519645Y-89623500D01*
X72519642Y-89623500D01*
X72361958Y-89623500D01*
X72361955Y-89623500D01*
X72207310Y-89654261D01*
X72207298Y-89654264D01*
X72061627Y-89714602D01*
X72061614Y-89714609D01*
X71930511Y-89802210D01*
X71930507Y-89802213D01*
X71819013Y-89913707D01*
X71819010Y-89913711D01*
X71731409Y-90044814D01*
X71731402Y-90044827D01*
X71671064Y-90190498D01*
X71671061Y-90190510D01*
X71640300Y-90345153D01*
X71640300Y-90502846D01*
X71671061Y-90657489D01*
X71671064Y-90657501D01*
X71731402Y-90803172D01*
X71731409Y-90803185D01*
X71819010Y-90934288D01*
X71819013Y-90934292D01*
X71930507Y-91045786D01*
X71930511Y-91045789D01*
X72061614Y-91133390D01*
X72061627Y-91133397D01*
X72207298Y-91193735D01*
X72207303Y-91193737D01*
X72348063Y-91221736D01*
X72361953Y-91224499D01*
X72361956Y-91224500D01*
X72361958Y-91224500D01*
X72519644Y-91224500D01*
X72519645Y-91224499D01*
X72674297Y-91193737D01*
X72819979Y-91133394D01*
X72916042Y-91069207D01*
X72951675Y-91045398D01*
X73018353Y-91024520D01*
X73020566Y-91024500D01*
X75083674Y-91024500D01*
X75083690Y-91024501D01*
X75091286Y-91024501D01*
X75249397Y-91024501D01*
X75249400Y-91024501D01*
X75402128Y-90983577D01*
X75477290Y-90940182D01*
X75539059Y-90904520D01*
X75650863Y-90792716D01*
X75650863Y-90792714D01*
X75661067Y-90782511D01*
X75661071Y-90782506D01*
X75914906Y-90528671D01*
X75914911Y-90528667D01*
X75925114Y-90518463D01*
X75925116Y-90518463D01*
X76036920Y-90406659D01*
X76101804Y-90294276D01*
X76115977Y-90269728D01*
X76156901Y-90117000D01*
X76156901Y-89958886D01*
X76156901Y-89951291D01*
X76156900Y-89951273D01*
X76156900Y-89289175D01*
X76170695Y-89234104D01*
X76170463Y-89234008D01*
X76171111Y-89232443D01*
X76171543Y-89230719D01*
X76172790Y-89228384D01*
X76172794Y-89228379D01*
X76233137Y-89082697D01*
X76263900Y-88928042D01*
X76263900Y-88770358D01*
X76263900Y-88770355D01*
X76263899Y-88770353D01*
X76233478Y-88617418D01*
X76233137Y-88615703D01*
X76227286Y-88601578D01*
X76172797Y-88470027D01*
X76172790Y-88470014D01*
X76085189Y-88338911D01*
X76085186Y-88338907D01*
X75973692Y-88227413D01*
X75973688Y-88227410D01*
X75842585Y-88139809D01*
X75842572Y-88139802D01*
X75696901Y-88079464D01*
X75696889Y-88079461D01*
X75542245Y-88048700D01*
X75542242Y-88048700D01*
X75384558Y-88048700D01*
X75384555Y-88048700D01*
X75229910Y-88079461D01*
X75229898Y-88079464D01*
X75084227Y-88139802D01*
X75084214Y-88139809D01*
X74953111Y-88227410D01*
X74953107Y-88227413D01*
X74841613Y-88338907D01*
X74841610Y-88338911D01*
X74754009Y-88470014D01*
X74754001Y-88470029D01*
X74746423Y-88488324D01*
X74702580Y-88542726D01*
X74636285Y-88564788D01*
X74568586Y-88547506D01*
X74544183Y-88528548D01*
X73868190Y-87852555D01*
X73868188Y-87852552D01*
X73749317Y-87733681D01*
X73749316Y-87733680D01*
X73662504Y-87683560D01*
X73662504Y-87683559D01*
X73662500Y-87683558D01*
X73612385Y-87654623D01*
X73459657Y-87613699D01*
X73301543Y-87613699D01*
X73293947Y-87613699D01*
X73293931Y-87613700D01*
X72969766Y-87613700D01*
X72902727Y-87594015D01*
X72900875Y-87592802D01*
X72769185Y-87504809D01*
X72769172Y-87504802D01*
X72623501Y-87444464D01*
X72623489Y-87444461D01*
X72468845Y-87413700D01*
X72468842Y-87413700D01*
X72311158Y-87413700D01*
X72311155Y-87413700D01*
X72156510Y-87444461D01*
X72156498Y-87444464D01*
X72010827Y-87504802D01*
X72010814Y-87504809D01*
X71879711Y-87592410D01*
X71879707Y-87592413D01*
X71768213Y-87703907D01*
X71768210Y-87703911D01*
X71680609Y-87835014D01*
X71680602Y-87835027D01*
X71620264Y-87980698D01*
X71620261Y-87980710D01*
X71589500Y-88135353D01*
X58797490Y-88135353D01*
X58802956Y-88118531D01*
X58804328Y-88109871D01*
X58804329Y-88109868D01*
X58813431Y-88052400D01*
X57769212Y-88052400D01*
X57802125Y-87995393D01*
X57836200Y-87868226D01*
X57836200Y-87736574D01*
X57802125Y-87609407D01*
X57769212Y-87552400D01*
X58813431Y-87552400D01*
X58802957Y-87486273D01*
X58802957Y-87486270D01*
X58737295Y-87284182D01*
X58640820Y-87094842D01*
X58515927Y-86922940D01*
X58515923Y-86922935D01*
X58365664Y-86772676D01*
X58365659Y-86772672D01*
X58193757Y-86647779D01*
X58004417Y-86551304D01*
X57802329Y-86485642D01*
X57592446Y-86452400D01*
X57586200Y-86452400D01*
X57586200Y-87369388D01*
X57529193Y-87336475D01*
X57402026Y-87302400D01*
X57270374Y-87302400D01*
X57143207Y-87336475D01*
X57086200Y-87369388D01*
X57086200Y-86452400D01*
X57079954Y-86452400D01*
X56870072Y-86485642D01*
X56870069Y-86485642D01*
X56667982Y-86551304D01*
X56478642Y-86647779D01*
X56306740Y-86772672D01*
X56306735Y-86772676D01*
X56156476Y-86922935D01*
X56156472Y-86922940D01*
X56031579Y-87094842D01*
X55935104Y-87284182D01*
X55869442Y-87486270D01*
X55869442Y-87486273D01*
X55858969Y-87552400D01*
X56903188Y-87552400D01*
X56870275Y-87609407D01*
X56836200Y-87736574D01*
X56836200Y-87868226D01*
X56870275Y-87995393D01*
X56903188Y-88052400D01*
X55858969Y-88052400D01*
X55869442Y-88118526D01*
X55869442Y-88118529D01*
X55935104Y-88320617D01*
X56031579Y-88509957D01*
X56156472Y-88681859D01*
X56156476Y-88681864D01*
X56295343Y-88820731D01*
X56328828Y-88882054D01*
X56323844Y-88951746D01*
X56281972Y-89007679D01*
X56272759Y-89013951D01*
X56117542Y-89109689D01*
X55993489Y-89233742D01*
X55901387Y-89383063D01*
X55901385Y-89383068D01*
X55873549Y-89467070D01*
X55846201Y-89549603D01*
X55846201Y-89549604D01*
X55846200Y-89549604D01*
X55835700Y-89652383D01*
X53174346Y-89652383D01*
X53170275Y-79181713D01*
X55852700Y-79181713D01*
X55852700Y-79394286D01*
X55872114Y-79516865D01*
X55885954Y-79604243D01*
X55942882Y-79779450D01*
X55951644Y-79806414D01*
X56048151Y-79995820D01*
X56173090Y-80167786D01*
X56311905Y-80306601D01*
X56345390Y-80367924D01*
X56340406Y-80437616D01*
X56298534Y-80493549D01*
X56289321Y-80499821D01*
X56134542Y-80595289D01*
X56010489Y-80719342D01*
X55918387Y-80868663D01*
X55918386Y-80868666D01*
X55863201Y-81035203D01*
X55863201Y-81035204D01*
X55863200Y-81035204D01*
X55852700Y-81137983D01*
X55852700Y-82438001D01*
X55852701Y-82438018D01*
X55863200Y-82540796D01*
X55863201Y-82540799D01*
X55889934Y-82621473D01*
X55918386Y-82707334D01*
X56010488Y-82856656D01*
X56134544Y-82980712D01*
X56283866Y-83072814D01*
X56450403Y-83127999D01*
X56553191Y-83138500D01*
X58153208Y-83138499D01*
X58255997Y-83127999D01*
X58422534Y-83072814D01*
X58571856Y-82980712D01*
X58695912Y-82856656D01*
X58788014Y-82707334D01*
X58843199Y-82540797D01*
X58853700Y-82438009D01*
X58853699Y-81137992D01*
X58849252Y-81094463D01*
X58843199Y-81035203D01*
X58843198Y-81035200D01*
X58827591Y-80988101D01*
X58788014Y-80868666D01*
X58695912Y-80719344D01*
X58571856Y-80595288D01*
X58422534Y-80503186D01*
X58422533Y-80503185D01*
X58417078Y-80499821D01*
X58370354Y-80447873D01*
X58359131Y-80378910D01*
X58386975Y-80314828D01*
X58394472Y-80306623D01*
X58533304Y-80167792D01*
X58658251Y-79995816D01*
X58754757Y-79806412D01*
X58820446Y-79604243D01*
X58853700Y-79394287D01*
X58853700Y-79181713D01*
X58820446Y-78971757D01*
X58754757Y-78769588D01*
X58658251Y-78580184D01*
X58658249Y-78580181D01*
X58658248Y-78580179D01*
X58533309Y-78408213D01*
X58382986Y-78257890D01*
X58211020Y-78132951D01*
X58021614Y-78036444D01*
X58021613Y-78036443D01*
X58021612Y-78036443D01*
X57819443Y-77970754D01*
X57819441Y-77970753D01*
X57819440Y-77970753D01*
X57658157Y-77945208D01*
X57609487Y-77937500D01*
X57096913Y-77937500D01*
X57048242Y-77945208D01*
X56886960Y-77970753D01*
X56684785Y-78036444D01*
X56495379Y-78132951D01*
X56323413Y-78257890D01*
X56173090Y-78408213D01*
X56048151Y-78580179D01*
X55951644Y-78769585D01*
X55885953Y-78971760D01*
X55852700Y-79181713D01*
X53170275Y-79181713D01*
X53164227Y-63624353D01*
X62928100Y-63624353D01*
X62928100Y-63782046D01*
X62958861Y-63936689D01*
X62958864Y-63936701D01*
X63019202Y-64082372D01*
X63019209Y-64082385D01*
X63106810Y-64213488D01*
X63106813Y-64213492D01*
X63218307Y-64324986D01*
X63218311Y-64324989D01*
X63349414Y-64412590D01*
X63349427Y-64412597D01*
X63495098Y-64472935D01*
X63495103Y-64472937D01*
X63649753Y-64503699D01*
X63649756Y-64503700D01*
X63649758Y-64503700D01*
X63807444Y-64503700D01*
X63807445Y-64503699D01*
X63962097Y-64472937D01*
X64107779Y-64412594D01*
X64107785Y-64412590D01*
X64239475Y-64324598D01*
X64306153Y-64303720D01*
X64308366Y-64303700D01*
X65011803Y-64303700D01*
X65078842Y-64323385D01*
X65099483Y-64340018D01*
X70872784Y-70113320D01*
X70872786Y-70113321D01*
X70872790Y-70113324D01*
X71009709Y-70192373D01*
X71009716Y-70192377D01*
X71162443Y-70233301D01*
X71162445Y-70233301D01*
X71328154Y-70233301D01*
X71328170Y-70233300D01*
X73287571Y-70233300D01*
X73354610Y-70252985D01*
X73400365Y-70305789D01*
X73410309Y-70374947D01*
X73381284Y-70438503D01*
X73375252Y-70444981D01*
X68697247Y-75122984D01*
X68686437Y-75139163D01*
X68675674Y-75155273D01*
X68645291Y-75200744D01*
X68615114Y-75245907D01*
X68558543Y-75382482D01*
X68558540Y-75382492D01*
X68529700Y-75527479D01*
X68529700Y-79217503D01*
X68510015Y-79284542D01*
X68457211Y-79330297D01*
X68388053Y-79340241D01*
X68324497Y-79311216D01*
X68318019Y-79305184D01*
X66753019Y-77740184D01*
X66719534Y-77678861D01*
X66716700Y-77652503D01*
X66716700Y-77389365D01*
X66736385Y-77322326D01*
X66737598Y-77320474D01*
X66825590Y-77188785D01*
X66825590Y-77188784D01*
X66825594Y-77188779D01*
X66885937Y-77043097D01*
X66916700Y-76888442D01*
X66916700Y-76730758D01*
X66916700Y-76730755D01*
X66916699Y-76730753D01*
X66885938Y-76576110D01*
X66885937Y-76576103D01*
X66830270Y-76441709D01*
X66825597Y-76430427D01*
X66825590Y-76430414D01*
X66737989Y-76299311D01*
X66737986Y-76299307D01*
X66626492Y-76187813D01*
X66626488Y-76187810D01*
X66495385Y-76100209D01*
X66495372Y-76100202D01*
X66349701Y-76039864D01*
X66349689Y-76039861D01*
X66195045Y-76009100D01*
X66195042Y-76009100D01*
X66037358Y-76009100D01*
X66037355Y-76009100D01*
X65882710Y-76039861D01*
X65882698Y-76039864D01*
X65737027Y-76100202D01*
X65737014Y-76100209D01*
X65605911Y-76187810D01*
X65605907Y-76187813D01*
X65494413Y-76299307D01*
X65494410Y-76299311D01*
X65406809Y-76430414D01*
X65406802Y-76430427D01*
X65346464Y-76576098D01*
X65346461Y-76576110D01*
X65315700Y-76730753D01*
X65315700Y-76888446D01*
X65346461Y-77043089D01*
X65346464Y-77043101D01*
X65406802Y-77188772D01*
X65406809Y-77188785D01*
X65494802Y-77320474D01*
X65515680Y-77387151D01*
X65515700Y-77389365D01*
X65515700Y-77865930D01*
X65515699Y-77865948D01*
X65515699Y-78031654D01*
X65515698Y-78031654D01*
X65542841Y-78132951D01*
X65556623Y-78184385D01*
X65579340Y-78223731D01*
X65616900Y-78288787D01*
X65635679Y-78321315D01*
X65754549Y-78440185D01*
X65754555Y-78440190D01*
X67892381Y-80578016D01*
X67925866Y-80639339D01*
X67928700Y-80665697D01*
X67928700Y-82554434D01*
X67909015Y-82621473D01*
X67907802Y-82623325D01*
X67819809Y-82755014D01*
X67819802Y-82755027D01*
X67759464Y-82900698D01*
X67759461Y-82900710D01*
X67728700Y-83055353D01*
X67728700Y-83213046D01*
X67759461Y-83367689D01*
X67759464Y-83367701D01*
X67819802Y-83513372D01*
X67819809Y-83513385D01*
X67907410Y-83644488D01*
X67907413Y-83644492D01*
X68018909Y-83755988D01*
X68019451Y-83756350D01*
X68019670Y-83756612D01*
X68023619Y-83759853D01*
X68023004Y-83760602D01*
X68064255Y-83809964D01*
X68072961Y-83879289D01*
X68053661Y-83928341D01*
X68023008Y-83974216D01*
X68023002Y-83974227D01*
X67962664Y-84119898D01*
X67962661Y-84119910D01*
X67931900Y-84274553D01*
X67931900Y-84432246D01*
X67962661Y-84586889D01*
X67962664Y-84586901D01*
X68023002Y-84732572D01*
X68023009Y-84732585D01*
X68110610Y-84863688D01*
X68110613Y-84863692D01*
X68222107Y-84975186D01*
X68222111Y-84975189D01*
X68353214Y-85062790D01*
X68353227Y-85062797D01*
X68498898Y-85123135D01*
X68498903Y-85123137D01*
X68653553Y-85153899D01*
X68653556Y-85153900D01*
X68653558Y-85153900D01*
X68811244Y-85153900D01*
X68811245Y-85153899D01*
X68965897Y-85123137D01*
X69111579Y-85062794D01*
X69242689Y-84975189D01*
X69354189Y-84863689D01*
X69441794Y-84732579D01*
X69451592Y-84708921D01*
X69478467Y-84668698D01*
X69631313Y-84515853D01*
X70637000Y-84515853D01*
X70637000Y-84673546D01*
X70667761Y-84828189D01*
X70667764Y-84828201D01*
X70728102Y-84973872D01*
X70728109Y-84973885D01*
X70815710Y-85104988D01*
X70815713Y-85104992D01*
X70927207Y-85216486D01*
X70927211Y-85216489D01*
X71058314Y-85304090D01*
X71058327Y-85304097D01*
X71203998Y-85364435D01*
X71204003Y-85364437D01*
X71358653Y-85395199D01*
X71358656Y-85395200D01*
X71358658Y-85395200D01*
X71516344Y-85395200D01*
X71516345Y-85395199D01*
X71670997Y-85364437D01*
X71816679Y-85304094D01*
X71947789Y-85216489D01*
X72059289Y-85104989D01*
X72146894Y-84973879D01*
X72207237Y-84828197D01*
X72238000Y-84673542D01*
X72238000Y-84515858D01*
X72238000Y-84515855D01*
X72237999Y-84515853D01*
X72221368Y-84432246D01*
X72207237Y-84361203D01*
X72178348Y-84291458D01*
X72146897Y-84215527D01*
X72146890Y-84215514D01*
X72058898Y-84083825D01*
X72038020Y-84017147D01*
X72038000Y-84014934D01*
X72038000Y-81593893D01*
X72057685Y-81526854D01*
X72110489Y-81481099D01*
X72114501Y-81479351D01*
X72151579Y-81463994D01*
X72282689Y-81376389D01*
X72394189Y-81264889D01*
X72481794Y-81133779D01*
X72542137Y-80988097D01*
X72572900Y-80833442D01*
X72572900Y-80675758D01*
X72572900Y-80675755D01*
X72572899Y-80675753D01*
X72565639Y-80639257D01*
X72542137Y-80521103D01*
X72524859Y-80479389D01*
X72481797Y-80375427D01*
X72481790Y-80375414D01*
X72394189Y-80244311D01*
X72394186Y-80244307D01*
X72282692Y-80132813D01*
X72282688Y-80132810D01*
X72151585Y-80045209D01*
X72151572Y-80045202D01*
X72005901Y-79984864D01*
X72005889Y-79984861D01*
X71851245Y-79954100D01*
X71851242Y-79954100D01*
X71693558Y-79954100D01*
X71693555Y-79954100D01*
X71538910Y-79984861D01*
X71538898Y-79984864D01*
X71393227Y-80045202D01*
X71393214Y-80045209D01*
X71262111Y-80132810D01*
X71262107Y-80132813D01*
X71150613Y-80244307D01*
X71150610Y-80244311D01*
X71063009Y-80375414D01*
X71063002Y-80375427D01*
X71002664Y-80521098D01*
X71002661Y-80521110D01*
X70970711Y-80681732D01*
X70969292Y-80681449D01*
X70969014Y-80682315D01*
X70969348Y-80689311D01*
X70956232Y-80722078D01*
X70934831Y-80759147D01*
X70915074Y-80793368D01*
X70877923Y-80857715D01*
X70836999Y-81010443D01*
X70836999Y-81010445D01*
X70836999Y-81178546D01*
X70837000Y-81178559D01*
X70837000Y-84014934D01*
X70817315Y-84081973D01*
X70816102Y-84083825D01*
X70728109Y-84215514D01*
X70728102Y-84215527D01*
X70667764Y-84361198D01*
X70667761Y-84361210D01*
X70637000Y-84515853D01*
X69631313Y-84515853D01*
X69863151Y-84284016D01*
X69945284Y-84161095D01*
X69945413Y-84160785D01*
X69978057Y-84081973D01*
X70001858Y-84024513D01*
X70030700Y-83879518D01*
X70030700Y-83731683D01*
X70030700Y-75963628D01*
X70050385Y-75896589D01*
X70067014Y-75875952D01*
X74737295Y-71205670D01*
X74777519Y-71178793D01*
X74801179Y-71168994D01*
X74932289Y-71081389D01*
X75043789Y-70969889D01*
X75131394Y-70838779D01*
X75191737Y-70693097D01*
X75222500Y-70538442D01*
X75222500Y-70380758D01*
X75222500Y-70380757D01*
X75221903Y-70374695D01*
X75223267Y-70374560D01*
X75228871Y-70311906D01*
X75271731Y-70256726D01*
X75337619Y-70233478D01*
X75344263Y-70233300D01*
X82693103Y-70233300D01*
X82760142Y-70252985D01*
X82780784Y-70269619D01*
X88573425Y-76062260D01*
X88606910Y-76123583D01*
X88607361Y-76125749D01*
X88638261Y-76281091D01*
X88638264Y-76281101D01*
X88698602Y-76426772D01*
X88698609Y-76426785D01*
X88786210Y-76557888D01*
X88786213Y-76557892D01*
X88897707Y-76669386D01*
X88897711Y-76669389D01*
X89028814Y-76756990D01*
X89028827Y-76756997D01*
X89174498Y-76817335D01*
X89174503Y-76817337D01*
X89329153Y-76848099D01*
X89329156Y-76848100D01*
X89329158Y-76848100D01*
X89486844Y-76848100D01*
X89486845Y-76848099D01*
X89641497Y-76817337D01*
X89787179Y-76756994D01*
X89918289Y-76669389D01*
X90029789Y-76557889D01*
X90117394Y-76426779D01*
X90177737Y-76281097D01*
X90208500Y-76126442D01*
X90208500Y-75968758D01*
X90208500Y-75968755D01*
X90208499Y-75968753D01*
X90176549Y-75808128D01*
X90177714Y-75807896D01*
X90177144Y-75744348D01*
X90193328Y-75709323D01*
X90194884Y-75706993D01*
X90194889Y-75706989D01*
X90282494Y-75575879D01*
X90342837Y-75430197D01*
X90373600Y-75275542D01*
X90373600Y-75117858D01*
X90373600Y-75117855D01*
X90373599Y-75117853D01*
X90342838Y-74963210D01*
X90342837Y-74963203D01*
X90319320Y-74906427D01*
X90282497Y-74817527D01*
X90282490Y-74817514D01*
X90194889Y-74686411D01*
X90194886Y-74686407D01*
X90083392Y-74574913D01*
X90083388Y-74574910D01*
X89952285Y-74487309D01*
X89952272Y-74487302D01*
X89806601Y-74426964D01*
X89806591Y-74426961D01*
X89651249Y-74396061D01*
X89589338Y-74363676D01*
X89587760Y-74362125D01*
X87977737Y-72752102D01*
X93034100Y-72752102D01*
X93034100Y-72988297D01*
X93071046Y-73221568D01*
X93144033Y-73446196D01*
X93251119Y-73656363D01*
X93251257Y-73656633D01*
X93390083Y-73847710D01*
X93557090Y-74014717D01*
X93748167Y-74153543D01*
X93847591Y-74204202D01*
X93958603Y-74260766D01*
X93958605Y-74260766D01*
X93958608Y-74260768D01*
X94079012Y-74299889D01*
X94183231Y-74333753D01*
X94416503Y-74370700D01*
X94416508Y-74370700D01*
X94652697Y-74370700D01*
X94885968Y-74333753D01*
X94887470Y-74333265D01*
X95110592Y-74260768D01*
X95321033Y-74153543D01*
X95512110Y-74014717D01*
X95679117Y-73847710D01*
X95817943Y-73656633D01*
X95925168Y-73446192D01*
X95998153Y-73221568D01*
X96000317Y-73207908D01*
X96035100Y-72988297D01*
X96035100Y-72752147D01*
X97534600Y-72752147D01*
X97534600Y-72988252D01*
X97571534Y-73221447D01*
X97644497Y-73446002D01*
X97751687Y-73656374D01*
X97811938Y-73739304D01*
X97811940Y-73739305D01*
X98510812Y-73040433D01*
X98522082Y-73082492D01*
X98594490Y-73207908D01*
X98696892Y-73310310D01*
X98822308Y-73382718D01*
X98864365Y-73393987D01*
X98165493Y-74092858D01*
X98248428Y-74153114D01*
X98458797Y-74260302D01*
X98683352Y-74333265D01*
X98683351Y-74333265D01*
X98916548Y-74370200D01*
X99152652Y-74370200D01*
X99385847Y-74333265D01*
X99610402Y-74260302D01*
X99820763Y-74153118D01*
X99820769Y-74153114D01*
X99903704Y-74092858D01*
X99903705Y-74092858D01*
X99204833Y-73393987D01*
X99246892Y-73382718D01*
X99372308Y-73310310D01*
X99474710Y-73207908D01*
X99547118Y-73082492D01*
X99558387Y-73040434D01*
X100257258Y-73739305D01*
X100257258Y-73739304D01*
X100317514Y-73656369D01*
X100317518Y-73656363D01*
X100424702Y-73446002D01*
X100497665Y-73221447D01*
X100534600Y-72988252D01*
X100534600Y-72752147D01*
X100497665Y-72518952D01*
X100424702Y-72294397D01*
X100317514Y-72084028D01*
X100257258Y-72001094D01*
X100257258Y-72001093D01*
X99558387Y-72699965D01*
X99547118Y-72657908D01*
X99474710Y-72532492D01*
X99372308Y-72430090D01*
X99246892Y-72357682D01*
X99204834Y-72346412D01*
X99903705Y-71647540D01*
X99903704Y-71647538D01*
X99820774Y-71587287D01*
X99610402Y-71480097D01*
X99385847Y-71407134D01*
X99385848Y-71407134D01*
X99152652Y-71370200D01*
X98916548Y-71370200D01*
X98683352Y-71407134D01*
X98458797Y-71480097D01*
X98248430Y-71587284D01*
X98165494Y-71647540D01*
X98864366Y-72346412D01*
X98822308Y-72357682D01*
X98696892Y-72430090D01*
X98594490Y-72532492D01*
X98522082Y-72657908D01*
X98510812Y-72699966D01*
X97811940Y-72001094D01*
X97751684Y-72084030D01*
X97644497Y-72294397D01*
X97571534Y-72518952D01*
X97534600Y-72752147D01*
X96035100Y-72752147D01*
X96035100Y-72752102D01*
X95998153Y-72518831D01*
X95925166Y-72294203D01*
X95818077Y-72084030D01*
X95817943Y-72083767D01*
X95679117Y-71892690D01*
X95512110Y-71725683D01*
X95321033Y-71586857D01*
X95110596Y-71479633D01*
X94885968Y-71406646D01*
X94652697Y-71369700D01*
X94652692Y-71369700D01*
X94416508Y-71369700D01*
X94416503Y-71369700D01*
X94183231Y-71406646D01*
X93958603Y-71479633D01*
X93748166Y-71586857D01*
X93664647Y-71647538D01*
X93557090Y-71725683D01*
X93557088Y-71725685D01*
X93557087Y-71725685D01*
X93390085Y-71892687D01*
X93390085Y-71892688D01*
X93390083Y-71892690D01*
X93330462Y-71974750D01*
X93251257Y-72083766D01*
X93144033Y-72294203D01*
X93071046Y-72518831D01*
X93034100Y-72752102D01*
X87977737Y-72752102D01*
X84095790Y-68870155D01*
X84095788Y-68870152D01*
X83976917Y-68751281D01*
X83976916Y-68751280D01*
X83890104Y-68701160D01*
X83890104Y-68701159D01*
X83890100Y-68701158D01*
X83839985Y-68672223D01*
X83687257Y-68631299D01*
X83529143Y-68631299D01*
X83521547Y-68631299D01*
X83521531Y-68631300D01*
X77473646Y-68631300D01*
X77406607Y-68611615D01*
X77360852Y-68558811D01*
X77352029Y-68531491D01*
X77325338Y-68397310D01*
X77325337Y-68397303D01*
X77325335Y-68397298D01*
X77264997Y-68251627D01*
X77264990Y-68251614D01*
X77176998Y-68119925D01*
X77156120Y-68053247D01*
X77156100Y-68051034D01*
X77156100Y-66252102D01*
X93034100Y-66252102D01*
X93034100Y-66488297D01*
X93071046Y-66721568D01*
X93144033Y-66946196D01*
X93251119Y-67156363D01*
X93251257Y-67156633D01*
X93390083Y-67347710D01*
X93557090Y-67514717D01*
X93748167Y-67653543D01*
X93847591Y-67704202D01*
X93958603Y-67760766D01*
X93958605Y-67760766D01*
X93958608Y-67760768D01*
X94079012Y-67799889D01*
X94183231Y-67833753D01*
X94416503Y-67870700D01*
X94416508Y-67870700D01*
X94652697Y-67870700D01*
X94885968Y-67833753D01*
X94917434Y-67823529D01*
X95110592Y-67760768D01*
X95321033Y-67653543D01*
X95512110Y-67514717D01*
X95679117Y-67347710D01*
X95817943Y-67156633D01*
X95925168Y-66946192D01*
X95998153Y-66721568D01*
X96000317Y-66707908D01*
X96035100Y-66488297D01*
X96035100Y-66252147D01*
X97534600Y-66252147D01*
X97534600Y-66488252D01*
X97571534Y-66721447D01*
X97644497Y-66946002D01*
X97751687Y-67156374D01*
X97811938Y-67239304D01*
X97811940Y-67239305D01*
X98510812Y-66540433D01*
X98522082Y-66582492D01*
X98594490Y-66707908D01*
X98696892Y-66810310D01*
X98822308Y-66882718D01*
X98864365Y-66893987D01*
X98165493Y-67592858D01*
X98248428Y-67653114D01*
X98458797Y-67760302D01*
X98683352Y-67833265D01*
X98683351Y-67833265D01*
X98916548Y-67870200D01*
X99152652Y-67870200D01*
X99385847Y-67833265D01*
X99610402Y-67760302D01*
X99820763Y-67653118D01*
X99820769Y-67653114D01*
X99903704Y-67592858D01*
X99903705Y-67592858D01*
X99204833Y-66893987D01*
X99246892Y-66882718D01*
X99372308Y-66810310D01*
X99474710Y-66707908D01*
X99547118Y-66582492D01*
X99558387Y-66540434D01*
X100257258Y-67239305D01*
X100257258Y-67239304D01*
X100317514Y-67156369D01*
X100317518Y-67156363D01*
X100424702Y-66946002D01*
X100497665Y-66721447D01*
X100534600Y-66488252D01*
X100534600Y-66252147D01*
X100497665Y-66018952D01*
X100424702Y-65794397D01*
X100317514Y-65584028D01*
X100257258Y-65501094D01*
X100257258Y-65501093D01*
X99558387Y-66199965D01*
X99547118Y-66157908D01*
X99474710Y-66032492D01*
X99372308Y-65930090D01*
X99246892Y-65857682D01*
X99204834Y-65846412D01*
X99903705Y-65147540D01*
X99903704Y-65147538D01*
X99820774Y-65087287D01*
X99610402Y-64980097D01*
X99385847Y-64907134D01*
X99385848Y-64907134D01*
X99152652Y-64870200D01*
X98916548Y-64870200D01*
X98683352Y-64907134D01*
X98458797Y-64980097D01*
X98248430Y-65087284D01*
X98165494Y-65147540D01*
X98864366Y-65846412D01*
X98822308Y-65857682D01*
X98696892Y-65930090D01*
X98594490Y-66032492D01*
X98522082Y-66157908D01*
X98510812Y-66199966D01*
X97811940Y-65501094D01*
X97751684Y-65584030D01*
X97644497Y-65794397D01*
X97571534Y-66018952D01*
X97534600Y-66252147D01*
X96035100Y-66252147D01*
X96035100Y-66252102D01*
X95998153Y-66018831D01*
X95945549Y-65856935D01*
X95925168Y-65794208D01*
X95925166Y-65794205D01*
X95925166Y-65794203D01*
X95818077Y-65584030D01*
X95817943Y-65583767D01*
X95679117Y-65392690D01*
X95512110Y-65225683D01*
X95321033Y-65086857D01*
X95110596Y-64979633D01*
X94885968Y-64906646D01*
X94652697Y-64869700D01*
X94652692Y-64869700D01*
X94416508Y-64869700D01*
X94416503Y-64869700D01*
X94183231Y-64906646D01*
X93958603Y-64979633D01*
X93748166Y-65086857D01*
X93691979Y-65127680D01*
X93557090Y-65225683D01*
X93557088Y-65225685D01*
X93557087Y-65225685D01*
X93390085Y-65392687D01*
X93390085Y-65392688D01*
X93390083Y-65392690D01*
X93330462Y-65474750D01*
X93251257Y-65583766D01*
X93144033Y-65794203D01*
X93071046Y-66018831D01*
X93034100Y-66252102D01*
X77156100Y-66252102D01*
X77156100Y-65529145D01*
X77156100Y-65529143D01*
X77115177Y-65376416D01*
X77115173Y-65376409D01*
X77036124Y-65239490D01*
X77036121Y-65239486D01*
X77036120Y-65239484D01*
X76924316Y-65127680D01*
X76924315Y-65127679D01*
X76919985Y-65123349D01*
X76919974Y-65123339D01*
X75993916Y-64197281D01*
X75960431Y-64135958D01*
X75965415Y-64066266D01*
X75993916Y-64021919D01*
X77401416Y-62614419D01*
X77462739Y-62580934D01*
X77489097Y-62578100D01*
X82013163Y-62578100D01*
X82080202Y-62597785D01*
X82125957Y-62650589D01*
X82135901Y-62719747D01*
X82116265Y-62770991D01*
X82069209Y-62841414D01*
X82069202Y-62841427D01*
X82008864Y-62987098D01*
X82008861Y-62987110D01*
X81978100Y-63141753D01*
X81978100Y-63299446D01*
X82008861Y-63454089D01*
X82008864Y-63454101D01*
X82069202Y-63599772D01*
X82069209Y-63599785D01*
X82156810Y-63730888D01*
X82156813Y-63730892D01*
X82268307Y-63842386D01*
X82268311Y-63842389D01*
X82399414Y-63929990D01*
X82399427Y-63929997D01*
X82496729Y-63970300D01*
X82545103Y-63990337D01*
X82699753Y-64021099D01*
X82699756Y-64021100D01*
X82699758Y-64021100D01*
X82857444Y-64021100D01*
X82857445Y-64021099D01*
X83012097Y-63990337D01*
X83141587Y-63936701D01*
X83157772Y-63929997D01*
X83157772Y-63929996D01*
X83157779Y-63929994D01*
X83233805Y-63879195D01*
X83289475Y-63841998D01*
X83356153Y-63821120D01*
X83358366Y-63821100D01*
X83951262Y-63821100D01*
X84018301Y-63840785D01*
X84020153Y-63841998D01*
X84075821Y-63879194D01*
X84075822Y-63879194D01*
X84075823Y-63879195D01*
X84214656Y-63936701D01*
X84221503Y-63939537D01*
X84376153Y-63970299D01*
X84376156Y-63970300D01*
X84376158Y-63970300D01*
X84533844Y-63970300D01*
X84533845Y-63970299D01*
X84688497Y-63939537D01*
X84834179Y-63879194D01*
X84965289Y-63791589D01*
X85076789Y-63680089D01*
X85164394Y-63548979D01*
X85224737Y-63403297D01*
X85255500Y-63248642D01*
X85255500Y-63090958D01*
X85255500Y-63090955D01*
X85255499Y-63090953D01*
X85244531Y-63035812D01*
X85224737Y-62936303D01*
X85209223Y-62898848D01*
X85164397Y-62790627D01*
X85164390Y-62790614D01*
X85144421Y-62760729D01*
X85144420Y-62760728D01*
X85135801Y-62747829D01*
X85119792Y-62696702D01*
X93047100Y-62696702D01*
X93047100Y-62932897D01*
X93084046Y-63166168D01*
X93157033Y-63390796D01*
X93237632Y-63548979D01*
X93264257Y-63601233D01*
X93403083Y-63792310D01*
X93570090Y-63959317D01*
X93761167Y-64098143D01*
X93783653Y-64109600D01*
X93971603Y-64205366D01*
X93971605Y-64205366D01*
X93971608Y-64205368D01*
X94092012Y-64244489D01*
X94196231Y-64278353D01*
X94429503Y-64315300D01*
X94429508Y-64315300D01*
X94665697Y-64315300D01*
X94898968Y-64278353D01*
X95123592Y-64205368D01*
X95334033Y-64098143D01*
X95525110Y-63959317D01*
X95692117Y-63792310D01*
X95830943Y-63601233D01*
X95938168Y-63390792D01*
X96011153Y-63166168D01*
X96023065Y-63090958D01*
X96048100Y-62932897D01*
X96048100Y-62696702D01*
X97547100Y-62696702D01*
X97547100Y-62932897D01*
X97584046Y-63166168D01*
X97657033Y-63390796D01*
X97737632Y-63548979D01*
X97764257Y-63601233D01*
X97903083Y-63792310D01*
X98070090Y-63959317D01*
X98261167Y-64098143D01*
X98283653Y-64109600D01*
X98471603Y-64205366D01*
X98471605Y-64205366D01*
X98471608Y-64205368D01*
X98592012Y-64244489D01*
X98696231Y-64278353D01*
X98929503Y-64315300D01*
X98929508Y-64315300D01*
X99165697Y-64315300D01*
X99398968Y-64278353D01*
X99623592Y-64205368D01*
X99834033Y-64098143D01*
X100025110Y-63959317D01*
X100192117Y-63792310D01*
X100330943Y-63601233D01*
X100438168Y-63390792D01*
X100511153Y-63166168D01*
X100523065Y-63090958D01*
X100548100Y-62932897D01*
X100548100Y-62696702D01*
X100511153Y-62463431D01*
X100438166Y-62238803D01*
X100330942Y-62028366D01*
X100325029Y-62020227D01*
X100192117Y-61837290D01*
X100025110Y-61670283D01*
X99834033Y-61531457D01*
X99623596Y-61424233D01*
X99398968Y-61351246D01*
X99165697Y-61314300D01*
X99165692Y-61314300D01*
X98929508Y-61314300D01*
X98929503Y-61314300D01*
X98696231Y-61351246D01*
X98471603Y-61424233D01*
X98261166Y-61531457D01*
X98169009Y-61598414D01*
X98070090Y-61670283D01*
X98070088Y-61670285D01*
X98070087Y-61670285D01*
X97903085Y-61837287D01*
X97903085Y-61837288D01*
X97903083Y-61837290D01*
X97858426Y-61898755D01*
X97764257Y-62028366D01*
X97657033Y-62238803D01*
X97584046Y-62463431D01*
X97547100Y-62696702D01*
X96048100Y-62696702D01*
X96011153Y-62463431D01*
X95938166Y-62238803D01*
X95830942Y-62028366D01*
X95825029Y-62020227D01*
X95692117Y-61837290D01*
X95525110Y-61670283D01*
X95334033Y-61531457D01*
X95123596Y-61424233D01*
X94898968Y-61351246D01*
X94665697Y-61314300D01*
X94665692Y-61314300D01*
X94429508Y-61314300D01*
X94429503Y-61314300D01*
X94196231Y-61351246D01*
X93971603Y-61424233D01*
X93761166Y-61531457D01*
X93669009Y-61598414D01*
X93570090Y-61670283D01*
X93570088Y-61670285D01*
X93570087Y-61670285D01*
X93403085Y-61837287D01*
X93403085Y-61837288D01*
X93403083Y-61837290D01*
X93358426Y-61898755D01*
X93264257Y-62028366D01*
X93157033Y-62238803D01*
X93084046Y-62463431D01*
X93047100Y-62696702D01*
X85119792Y-62696702D01*
X85114923Y-62681151D01*
X85133407Y-62613771D01*
X85151218Y-62591259D01*
X85254589Y-62487889D01*
X85342194Y-62356779D01*
X85402537Y-62211097D01*
X85433300Y-62056442D01*
X85433300Y-61898758D01*
X85433300Y-61898755D01*
X85433299Y-61898753D01*
X85421073Y-61837288D01*
X85402537Y-61744103D01*
X85380131Y-61690009D01*
X85342197Y-61598427D01*
X85342190Y-61598414D01*
X85254589Y-61467311D01*
X85254586Y-61467307D01*
X85143092Y-61355813D01*
X85143088Y-61355810D01*
X85011985Y-61268209D01*
X85011972Y-61268202D01*
X84866301Y-61207864D01*
X84866289Y-61207861D01*
X84711645Y-61177100D01*
X84711642Y-61177100D01*
X84553958Y-61177100D01*
X84553955Y-61177100D01*
X84399310Y-61207861D01*
X84399298Y-61207864D01*
X84253627Y-61268202D01*
X84253614Y-61268209D01*
X84121925Y-61356202D01*
X84055247Y-61377080D01*
X84053034Y-61377100D01*
X77268057Y-61377100D01*
X77109942Y-61377100D01*
X76957215Y-61418023D01*
X76957214Y-61418023D01*
X76957212Y-61418024D01*
X76957209Y-61418025D01*
X76907096Y-61446959D01*
X76907095Y-61446960D01*
X76871853Y-61467307D01*
X76820285Y-61497079D01*
X76820282Y-61497081D01*
X75268181Y-63049183D01*
X75206858Y-63082668D01*
X75137166Y-63077684D01*
X75081233Y-63035812D01*
X75056816Y-62970348D01*
X75056500Y-62961502D01*
X75056500Y-60905018D01*
X75076185Y-60837979D01*
X75111611Y-60801915D01*
X75160889Y-60768989D01*
X75272389Y-60657489D01*
X75359994Y-60526379D01*
X75420337Y-60380697D01*
X75451100Y-60226042D01*
X75451100Y-60068358D01*
X75451100Y-60068355D01*
X75451099Y-60068353D01*
X75420338Y-59913710D01*
X75420337Y-59913703D01*
X75386455Y-59831903D01*
X75359997Y-59768027D01*
X75359990Y-59768014D01*
X75272389Y-59636911D01*
X75272386Y-59636907D01*
X75160892Y-59525413D01*
X75160888Y-59525410D01*
X75029785Y-59437809D01*
X75029772Y-59437802D01*
X74884101Y-59377464D01*
X74884089Y-59377461D01*
X74729445Y-59346700D01*
X74729442Y-59346700D01*
X74571758Y-59346700D01*
X74571755Y-59346700D01*
X74417110Y-59377461D01*
X74417098Y-59377464D01*
X74271427Y-59437802D01*
X74271414Y-59437809D01*
X74140311Y-59525410D01*
X74140307Y-59525413D01*
X74028813Y-59636907D01*
X74028807Y-59636915D01*
X73941207Y-59768018D01*
X73941206Y-59768019D01*
X73931405Y-59791680D01*
X73904528Y-59831903D01*
X73723046Y-60013386D01*
X73703037Y-60043333D01*
X73683026Y-60073283D01*
X73640919Y-60136299D01*
X73640912Y-60136311D01*
X73584343Y-60272882D01*
X73584340Y-60272892D01*
X73555500Y-60417879D01*
X73555500Y-60417882D01*
X73555500Y-67344118D01*
X73555500Y-67344120D01*
X73555499Y-67344120D01*
X73584340Y-67489107D01*
X73584343Y-67489117D01*
X73640914Y-67625692D01*
X73640915Y-67625694D01*
X73640916Y-67625695D01*
X73659523Y-67653543D01*
X73673812Y-67674927D01*
X73673813Y-67674930D01*
X73723046Y-67748614D01*
X73723052Y-67748621D01*
X74394051Y-68419619D01*
X74427536Y-68480942D01*
X74422552Y-68550633D01*
X74380681Y-68606567D01*
X74315216Y-68630984D01*
X74306370Y-68631300D01*
X71707698Y-68631300D01*
X71640659Y-68611615D01*
X71620017Y-68594981D01*
X65409773Y-62384737D01*
X65376288Y-62323414D01*
X65375837Y-62321247D01*
X65359438Y-62238803D01*
X65344937Y-62165903D01*
X65299598Y-62056444D01*
X65284597Y-62020227D01*
X65284590Y-62020214D01*
X65196989Y-61889111D01*
X65196986Y-61889107D01*
X65085492Y-61777613D01*
X65085488Y-61777610D01*
X64954385Y-61690009D01*
X64954372Y-61690002D01*
X64808701Y-61629664D01*
X64808689Y-61629661D01*
X64654045Y-61598900D01*
X64654042Y-61598900D01*
X64496358Y-61598900D01*
X64496355Y-61598900D01*
X64341710Y-61629661D01*
X64341698Y-61629664D01*
X64196027Y-61690002D01*
X64196014Y-61690009D01*
X64064911Y-61777610D01*
X64064907Y-61777613D01*
X63953413Y-61889107D01*
X63953410Y-61889111D01*
X63865809Y-62020214D01*
X63865802Y-62020227D01*
X63805464Y-62165898D01*
X63805461Y-62165910D01*
X63774700Y-62320553D01*
X63774700Y-62478246D01*
X63805461Y-62632889D01*
X63805463Y-62632897D01*
X63841437Y-62719747D01*
X63846201Y-62731247D01*
X63853670Y-62800717D01*
X63822395Y-62863196D01*
X63762306Y-62898848D01*
X63731640Y-62902700D01*
X63649755Y-62902700D01*
X63495110Y-62933461D01*
X63495098Y-62933464D01*
X63349427Y-62993802D01*
X63349414Y-62993809D01*
X63218311Y-63081410D01*
X63218307Y-63081413D01*
X63106813Y-63192907D01*
X63106810Y-63192911D01*
X63019209Y-63324014D01*
X63019202Y-63324027D01*
X62958864Y-63469698D01*
X62958861Y-63469710D01*
X62928100Y-63624353D01*
X53164227Y-63624353D01*
X53161340Y-56196702D01*
X93047100Y-56196702D01*
X93047100Y-56432897D01*
X93084046Y-56666168D01*
X93157033Y-56890796D01*
X93264257Y-57101233D01*
X93403083Y-57292310D01*
X93570090Y-57459317D01*
X93761167Y-57598143D01*
X93860591Y-57648802D01*
X93971603Y-57705366D01*
X93971605Y-57705366D01*
X93971608Y-57705368D01*
X94092012Y-57744489D01*
X94196231Y-57778353D01*
X94429503Y-57815300D01*
X94429508Y-57815300D01*
X94665697Y-57815300D01*
X94898968Y-57778353D01*
X95123592Y-57705368D01*
X95334033Y-57598143D01*
X95525110Y-57459317D01*
X95692117Y-57292310D01*
X95830943Y-57101233D01*
X95938168Y-56890792D01*
X96011153Y-56666168D01*
X96048100Y-56432897D01*
X96048100Y-56196702D01*
X97547100Y-56196702D01*
X97547100Y-56432897D01*
X97584046Y-56666168D01*
X97657033Y-56890796D01*
X97764257Y-57101233D01*
X97903083Y-57292310D01*
X98070090Y-57459317D01*
X98261167Y-57598143D01*
X98360591Y-57648802D01*
X98471603Y-57705366D01*
X98471605Y-57705366D01*
X98471608Y-57705368D01*
X98592012Y-57744489D01*
X98696231Y-57778353D01*
X98929503Y-57815300D01*
X98929508Y-57815300D01*
X99165697Y-57815300D01*
X99398968Y-57778353D01*
X99623592Y-57705368D01*
X99834033Y-57598143D01*
X100025110Y-57459317D01*
X100192117Y-57292310D01*
X100330943Y-57101233D01*
X100438168Y-56890792D01*
X100511153Y-56666168D01*
X100548100Y-56432897D01*
X100548100Y-56196702D01*
X100511153Y-55963431D01*
X100438166Y-55738803D01*
X100330942Y-55528366D01*
X100192117Y-55337290D01*
X100025110Y-55170283D01*
X99834033Y-55031457D01*
X99623596Y-54924233D01*
X99398968Y-54851246D01*
X99165697Y-54814300D01*
X99165692Y-54814300D01*
X98929508Y-54814300D01*
X98929503Y-54814300D01*
X98696231Y-54851246D01*
X98471603Y-54924233D01*
X98261166Y-55031457D01*
X98152150Y-55110662D01*
X98070090Y-55170283D01*
X98070088Y-55170285D01*
X98070087Y-55170285D01*
X97903085Y-55337287D01*
X97903085Y-55337288D01*
X97903083Y-55337290D01*
X97843462Y-55419350D01*
X97764257Y-55528366D01*
X97657033Y-55738803D01*
X97584046Y-55963431D01*
X97547100Y-56196702D01*
X96048100Y-56196702D01*
X96011153Y-55963431D01*
X95938166Y-55738803D01*
X95830942Y-55528366D01*
X95692117Y-55337290D01*
X95525110Y-55170283D01*
X95334033Y-55031457D01*
X95123596Y-54924233D01*
X94898968Y-54851246D01*
X94665697Y-54814300D01*
X94665692Y-54814300D01*
X94429508Y-54814300D01*
X94429503Y-54814300D01*
X94196231Y-54851246D01*
X93971603Y-54924233D01*
X93761166Y-55031457D01*
X93652150Y-55110662D01*
X93570090Y-55170283D01*
X93570088Y-55170285D01*
X93570087Y-55170285D01*
X93403085Y-55337287D01*
X93403085Y-55337288D01*
X93403083Y-55337290D01*
X93343462Y-55419350D01*
X93264257Y-55528366D01*
X93157033Y-55738803D01*
X93084046Y-55963431D01*
X93047100Y-56196702D01*
X53161340Y-56196702D01*
X53158089Y-47834034D01*
X62437100Y-47834034D01*
X62437100Y-47985565D01*
X62476319Y-48131936D01*
X62514202Y-48197550D01*
X62552085Y-48263165D01*
X62659235Y-48370315D01*
X62790465Y-48446081D01*
X62936834Y-48485300D01*
X62936836Y-48485300D01*
X63088364Y-48485300D01*
X63088366Y-48485300D01*
X63234735Y-48446081D01*
X63365965Y-48370315D01*
X63473115Y-48263165D01*
X63548881Y-48131935D01*
X63588100Y-47985566D01*
X63588100Y-47834034D01*
X68217100Y-47834034D01*
X68217100Y-47985565D01*
X68256319Y-48131936D01*
X68294202Y-48197550D01*
X68332085Y-48263165D01*
X68439235Y-48370315D01*
X68570465Y-48446081D01*
X68716834Y-48485300D01*
X68716836Y-48485300D01*
X68868364Y-48485300D01*
X68868366Y-48485300D01*
X69014735Y-48446081D01*
X69145965Y-48370315D01*
X69253115Y-48263165D01*
X69328881Y-48131935D01*
X69368100Y-47985566D01*
X69368100Y-47834034D01*
X69328881Y-47687665D01*
X69253115Y-47556435D01*
X69145965Y-47449285D01*
X69080350Y-47411402D01*
X69014736Y-47373519D01*
X68941550Y-47353909D01*
X68868366Y-47334300D01*
X68716834Y-47334300D01*
X68570463Y-47373519D01*
X68439235Y-47449285D01*
X68439232Y-47449287D01*
X68332087Y-47556432D01*
X68332085Y-47556435D01*
X68256319Y-47687663D01*
X68217100Y-47834034D01*
X63588100Y-47834034D01*
X63548881Y-47687665D01*
X63473115Y-47556435D01*
X63365965Y-47449285D01*
X63300350Y-47411402D01*
X63234736Y-47373519D01*
X63161550Y-47353909D01*
X63088366Y-47334300D01*
X62936834Y-47334300D01*
X62790463Y-47373519D01*
X62659235Y-47449285D01*
X62659232Y-47449287D01*
X62552087Y-47556432D01*
X62552085Y-47556435D01*
X62476319Y-47687663D01*
X62437100Y-47834034D01*
X53158089Y-47834034D01*
X53157939Y-47449287D01*
X53157549Y-46445642D01*
X53157481Y-46270238D01*
X53177139Y-46203192D01*
X53229926Y-46157417D01*
X53299080Y-46147446D01*
X53362647Y-46176446D01*
X53369162Y-46182510D01*
X53422173Y-46235521D01*
X53685657Y-46445642D01*
X53971010Y-46624942D01*
X53971012Y-46624943D01*
X54019819Y-46648447D01*
X54274645Y-46771165D01*
X54513544Y-46854759D01*
X54592730Y-46882468D01*
X54592742Y-46882472D01*
X54921302Y-46957463D01*
X55256188Y-46995195D01*
X55256189Y-46995196D01*
X55256192Y-46995196D01*
X55593203Y-46995196D01*
X55593203Y-46995195D01*
X55928090Y-46957463D01*
X56256650Y-46882472D01*
X56574747Y-46771165D01*
X56878382Y-46624942D01*
X57163735Y-46445642D01*
X57427219Y-46235521D01*
X57665521Y-45997219D01*
X57875642Y-45733735D01*
X58054942Y-45448382D01*
X58201165Y-45144747D01*
X58312472Y-44826650D01*
X58387463Y-44498090D01*
X58425196Y-44163200D01*
X58425196Y-43826192D01*
X58387463Y-43491302D01*
X58312472Y-43162742D01*
X58201165Y-42844645D01*
X58054942Y-42541010D01*
X57875642Y-42255657D01*
X57665521Y-41992173D01*
X57612448Y-41939100D01*
X57578963Y-41877777D01*
X57583947Y-41808085D01*
X57625819Y-41752152D01*
X57691283Y-41727735D01*
X57700148Y-41727419D01*
X80715296Y-41735754D01*
G37*
%TD.AperFunction*%
%TD*%
M02*
